<?xml version="1.0" encoding="UTF-8" standalone="no"?>
<svg
   viewBox="0 0 1280 320"
   width="1280"
   height="320"
   version="1.1"
   id="svg3"
   xmlns="http://www.w3.org/2000/svg"
   xmlns:svg="http://www.w3.org/2000/svg">
  <defs
     id="defs3" />
  <rect
     width="1280"
     height="320"
     fill="#0F1518"
     id="rect1" />
  <g
     transform="translate(410, 80) scale(0.8)"
     id="g3">
    <path
       d="M64 50 L130 38 L162 70 L158 130 L120 162 L60 152 L36 108 Z"
       fill="#FF6A00"
       id="path1" />
    <path
       d="M64 50 L130 38 L162 70 L120 78 L70 80 Z"
       fill="#FFFFFF"
       fill-opacity="0.18"
       id="path2" />
    <path
       d="M162 70 L158 130 L120 162 L120 78 Z"
       fill="#D74F00"
       fill-opacity="0.55"
       id="path3" />
  </g>
  <path
     d="m 612.624,186.03135 v -67.2 h 28.704 q 6.336,0 11.04,2.208 4.704,2.208 7.296,6.24 2.688,3.936 2.688,9.504 v 1.056 q 0,6.24 -2.976,9.984 -2.976,3.744 -7.2,5.472 v 1.536 q 3.744,0.192 5.856,2.592 2.208,2.4 2.208,6.432 v 22.176 h -11.52 v -20.544 q 0,-2.4 -1.344,-3.84 -1.248,-1.536 -4.128,-1.536 H 624.24 v 25.92 z m 11.616,-36.384 h 15.936 q 4.992,0 7.776,-2.592 2.88,-2.688 2.88,-7.104 v -0.864 q 0,-4.512 -2.784,-7.104 -2.784,-2.688 -7.872,-2.688 H 624.24 Z m 69.504,37.728 q -7.104,0 -12.768,-2.88 -5.568,-2.976 -8.832,-8.352 -3.168,-5.472 -3.168,-13.056 v -1.536 q 0,-7.584 3.168,-13.056 3.264,-5.472 8.832,-8.352 5.664,-2.88 12.768,-2.88 7.104,0 12.672,2.88 5.568,2.88 8.736,8.352 3.264,5.472 3.264,13.056 v 1.536 q 0,7.584 -3.264,13.056 -3.168,5.376 -8.736,8.352 -5.568,2.88 -12.672,2.88 z m 0,-9.792 q 6.048,0 9.888,-3.84 3.84,-3.936 3.84,-10.944 v -0.96 q 0,-7.008 -3.84,-10.848 -3.84,-3.936 -9.888,-3.936 -6.048,0 -9.888,3.936 -3.84,3.84 -3.84,10.848 v 0.96 q 0,7.008 3.84,10.944 3.84,3.84 9.888,3.84 z m 56.16008,9.792 q -6.912,0 -12.48,-2.88 -5.568,-2.88 -8.832,-8.352 -3.168,-5.472 -3.168,-13.152 v -1.344 q 0,-7.68 3.168,-13.152 3.264,-5.472 8.832,-8.352 5.568,-2.88 12.48,-2.88 6.816,0 11.616,2.4 4.896,2.4 7.872,6.624 2.976,4.128 3.84,9.312 l -10.656,2.208 q -0.384,-2.976 -1.824,-5.376 -1.44,-2.496 -4.128,-3.936 -2.592,-1.44 -6.432,-1.44 -3.936,0 -7.104,1.728 -3.072,1.632 -4.896,4.992 -1.728,3.36 -1.728,8.064 v 0.96 q 0,4.704 1.728,8.064 1.824,3.264 4.896,4.992 3.168,1.728 7.104,1.728 5.856,0 8.832,-2.976 3.072,-3.072 3.84,-7.872 l 10.656,2.496 q -1.152,4.992 -4.128,9.12 -2.976,4.128 -7.872,6.624 -4.8,2.4 -11.616,2.4 z m 31.96807,-1.344 v -67.2 h 11.04 v 37.728 h 1.632 l 17.088,-17.952 h 14.496 l -22.944,22.944 23.712,24.48 h -14.304 l -18.048,-19.296 h -1.632 v 19.296 z m 56.44805,19.2 v -9.6 h 26.208 q 2.688,0 2.688,-2.88 v -13.248 h -1.632 q -0.768,1.728 -2.496,3.456 -1.728,1.632 -4.608,2.784 -2.88,1.056 -7.296,1.056 -5.472,0 -9.696,-2.4 -4.224,-2.496 -6.528,-6.912 -2.304,-4.512 -2.304,-10.464 v -28.416 h 10.944 v 27.552 q 0,5.76 2.784,8.544 2.88,2.784 8.064,2.784 5.856,0 9.216,-3.84 3.456,-3.84 3.456,-11.04 v -24 h 10.944 v 56.448 q 0,4.704 -2.688,7.392 -2.688,2.784 -7.296,2.784 z"
     id="text3"
     style="font-weight:600;font-size:96px;font-family:'Space Grotesk', sans-serif;letter-spacing:-2.4;dominant-baseline:central;fill:#ffffff"
     aria-label="Rocky" />
</svg>
