<?xml version="1.0" encoding="UTF-8" standalone="no"?>
<svg
   viewBox="0 0 534 200"
   width="534"
   height="200"
   version="1.1"
   id="svg3"
   xmlns="http://www.w3.org/2000/svg"
   xmlns:svg="http://www.w3.org/2000/svg">
  <defs
     id="defs3" />
  <g
     transform="translate(0, 20) scale(0.8)"
     id="g3">
    <path
       d="M64 50 L130 38 L162 70 L158 130 L120 162 L60 152 L36 108 Z"
       fill="#FF6A00"
       id="path1" />
    <path
       d="M64 50 L130 38 L162 70 L120 78 L70 80 Z"
       fill="#FFFFFF"
       fill-opacity="0.18"
       id="path2" />
    <path
       d="M162 70 L158 130 L120 162 L120 78 Z"
       fill="#D74F00"
       fill-opacity="0.55"
       id="path3" />
  </g>
  <path
     d="M 196.28,132.53918 V 48.539185 h 35.88 q 7.92,0 13.8,2.76 5.88,2.76 9.12,7.8 3.36,4.92 3.36,11.88 v 1.32 q 0,7.8 -3.72,12.48 -3.72,4.68 -9,6.84 v 1.92 q 4.68,0.24 7.32,3.24 2.76,3 2.76,8.039995 v 27.72 h -14.4 v -25.68 q 0,-3 -1.68,-4.8 -1.56,-1.92 -5.16,-1.92 H 210.8 v 32.4 z M 210.8,87.059185 h 19.92 q 6.24,0 9.72,-3.24 3.6,-3.36 3.6,-8.88 v -1.08 q 0,-5.64 -3.48,-8.88 -3.48,-3.36 -9.84,-3.36 H 210.8 Z m 87.47999,47.159995 q -8.88,0 -15.96,-3.6 -6.96,-3.72 -11.04,-10.44 -3.96,-6.84 -3.96,-16.32 v -1.92 q 0,-9.479995 3.96,-16.319995 4.08,-6.84 11.04,-10.44 7.08,-3.6 15.96,-3.6 8.88,0 15.84,3.6 6.96,3.6 10.92,10.44 4.08,6.84 4.08,16.319995 v 1.92 q 0,9.48 -4.08,16.32 -3.96,6.72 -10.92,10.44 -6.96,3.6 -15.84,3.6 z m 0,-12.24 q 7.56,0 12.36,-4.8 4.8,-4.92 4.8,-13.68 v -1.2 q 0,-8.759995 -4.8,-13.559995 -4.8,-4.92 -12.36,-4.92 -7.56,0 -12.36,4.92 -4.8,4.8 -4.8,13.559995 v 1.2 q 0,8.76 4.8,13.68 4.8,4.8 12.36,4.8 z m 70.80011,12.24 q -8.64,0 -15.6,-3.6 -6.96,-3.6 -11.04,-10.44 -3.96,-6.84 -3.96,-16.44 v -1.68 q 0,-9.599995 3.96,-16.439995 4.08,-6.84 11.04,-10.44 6.96,-3.6 15.6,-3.6 8.52,0 14.52,3 6.12,3 9.84,8.28 3.72,5.16 4.8,11.64 l -13.32,2.76 q -0.48,-3.72 -2.28,-6.72 -1.8,-3.12 -5.16,-4.92 -3.24,-1.8 -8.04,-1.8 -4.92,0 -8.88,2.16 -3.84,2.04 -6.12,6.24 -2.16,4.2 -2.16,10.079995 v 1.2 q 0,5.88 2.16,10.08 2.28,4.08 6.12,6.24 3.96,2.16 8.88,2.16 7.32,0 11.04,-3.72 3.84,-3.84 4.8,-9.84 l 13.32,3.12 q -1.44,6.24 -5.16,11.4 -3.72,5.16 -9.84,8.28 -6,3 -14.52,3 z m 40.56009,-1.68 V 48.539185 h 13.8 v 47.16 h 2.04 l 21.36,-22.44 h 18.12 l -28.68,28.679995 29.64,30.6 h -17.88 l -22.56,-24.12 h -2.04 v 24.12 z m 71.16006,24 v -12 h 32.76 q 3.36,0 3.36,-3.6 v -16.56 h -2.04 q -0.96,2.16 -3.12,4.32 -2.16,2.04 -5.76,3.48 -3.6,1.32 -9.12,1.32 -6.84,0 -12.12,-3 -5.28,-3.12 -8.16,-8.64 -2.88,-5.64 -2.88,-13.08 V 73.259185 h 13.68 v 34.439995 q 0,7.2 3.48,10.68 3.6,3.48 10.08,3.48 7.32,0 11.52,-4.8 4.32,-4.8 4.32,-13.8 V 73.259185 h 13.68 v 70.559995 q 0,5.88 -3.36,9.24 -3.36,3.48 -9.12,3.48 z"
     id="text3"
     style="font-weight:600;font-size:120px;font-family:'Space Grotesk', sans-serif;letter-spacing:-2.4;dominant-baseline:central;fill:#ffffff"
     aria-label="Rocky" />
</svg>
