<?xml version="1.0" encoding="UTF-8" standalone="no"?>
<svg
   viewBox="0 0 1280 640"
   width="1280"
   data-om-id="jsx:/https:/019df4d5-a06c-7ad2-bdf8-ef90952b5db1.claudeusercontent.com/v1/design/projects/019df4d5-a06c-7ad2-bdf8-ef90952b5db1/serve/banners.jsx:5597:139:5"
   height="640"
   version="1.1"
   id="svg8"
   xmlns="http://www.w3.org/2000/svg"
   xmlns:svg="http://www.w3.org/2000/svg">
  <defs
     id="defs8" />
  <rect
     width="1280"
     height="640"
     fill="#0F1518"
     data-om-id="jsx:/https:/019df4d5-a06c-7ad2-bdf8-ef90952b5db1.claudeusercontent.com/v1/design/projects/019df4d5-a06c-7ad2-bdf8-ef90952b5db1/serve/banners.jsx:5779:140:7"
     data-cc-id="cc-5"
     id="rect1" />
  <g
     transform="translate(540, 84) scale(1)"
     data-om-id="jsx:/https:/019df4d5-a06c-7ad2-bdf8-ef90952b5db1.claudeusercontent.com/v1/design/projects/019df4d5-a06c-7ad2-bdf8-ef90952b5db1/serve/banners.jsx:5852:143:7"
     id="g4">
    <g
       data-om-id="jsx:/https:/019df4d5-a06c-7ad2-bdf8-ef90952b5db1.claudeusercontent.com/v1/design/projects/019df4d5-a06c-7ad2-bdf8-ef90952b5db1/serve/banners.jsx:552:15:5"
       id="g3">
      <path
         d="M64 50 L130 38 L162 70 L158 130 L120 162 L60 152 L36 108 Z"
         fill="#FF6A00"
         data-om-id="jsx:/https:/019df4d5-a06c-7ad2-bdf8-ef90952b5db1.claudeusercontent.com/v1/design/projects/019df4d5-a06c-7ad2-bdf8-ef90952b5db1/serve/banners.jsx:562:16:7"
         id="path1" />
      <path
         d="M64 50 L130 38 L162 70 L120 78 L70 80 Z"
         fill="#FFFFFF"
         fill-opacity="0.18"
         data-om-id="jsx:/https:/019df4d5-a06c-7ad2-bdf8-ef90952b5db1.claudeusercontent.com/v1/design/projects/019df4d5-a06c-7ad2-bdf8-ef90952b5db1/serve/banners.jsx:653:17:7"
         id="path2" />
      <path
         d="M162 70 L158 130 L120 162 L120 78 Z"
         fill="#D74F00"
         fill-opacity="0.55"
         data-om-id="jsx:/https:/019df4d5-a06c-7ad2-bdf8-ef90952b5db1.claudeusercontent.com/v1/design/projects/019df4d5-a06c-7ad2-bdf8-ef90952b5db1/serve/banners.jsx:758:18:7"
         id="path3" />
    </g>
  </g>
  <path
     d="m 456.64588,422.95999 v -92.4 h 39.468 q 8.712,0 15.18,3.036 6.468,3.036 10.032,8.58 3.696,5.412 3.696,13.068 v 1.452 q 0,8.58 -4.092,13.728 -4.092,5.148 -9.9,7.524 v 2.112 q 5.148,0.264 8.052,3.564 3.036,3.3 3.036,8.844 v 30.492 h -15.84 v -28.248 q 0,-3.3 -1.848,-5.28 -1.716,-2.112 -5.676,-2.112 h -26.136 v 35.64 z m 15.972,-50.028 h 21.912 q 6.864,0 10.692,-3.564 3.96,-3.696 3.96,-9.768 v -1.188 q 0,-6.204 -3.828,-9.768 -3.828,-3.696 -10.824,-3.696 h -21.912 z m 95.86799,51.876 q -9.768,0 -17.556,-3.96 -7.656,-4.092 -12.144,-11.484 -4.356,-7.524 -4.356,-17.952 v -2.112 q 0,-10.428 4.356,-17.952 4.488,-7.524 12.144,-11.484 7.788,-3.96 17.556,-3.96 9.768,0 17.424,3.96 7.656,3.96 12.012,11.484 4.488,7.524 4.488,17.952 v 2.112 q 0,10.428 -4.488,17.952 -4.356,7.392 -12.012,11.484 -7.656,3.96 -17.424,3.96 z m 0,-13.464 q 8.316,0 13.596,-5.28 5.28,-5.412 5.28,-15.048 v -1.32 q 0,-9.636 -5.28,-14.916 -5.28,-5.412 -13.596,-5.412 -8.316,0 -13.596,5.412 -5.28,5.28 -5.28,14.916 v 1.32 q 0,9.636 5.28,15.048 5.28,5.28 13.596,5.28 z m 77.52012,13.464 q -9.504,0 -17.16,-3.96 -7.656,-3.96 -12.144,-11.484 -4.356,-7.524 -4.356,-18.084 v -1.848 q 0,-10.56 4.356,-18.084 4.488,-7.524 12.144,-11.484 7.656,-3.96 17.16,-3.96 9.372,0 15.972,3.3 6.732,3.3 10.824,9.108 4.092,5.676 5.28,12.804 l -14.652,3.036 q -0.528,-4.092 -2.508,-7.392 -1.98,-3.432 -5.676,-5.412 -3.564,-1.98 -8.844,-1.98 -5.412,0 -9.768,2.376 -4.224,2.244 -6.732,6.864 -2.376,4.62 -2.376,11.088 v 1.32 q 0,6.468 2.376,11.088 2.508,4.488 6.732,6.864 4.356,2.376 9.768,2.376 8.052,0 12.144,-4.092 4.224,-4.224 5.28,-10.824 l 14.652,3.432 q -1.584,6.864 -5.676,12.54 -4.092,5.676 -10.824,9.108 -6.6,3.3 -15.972,3.3 z m 44.25608,-1.848 v -92.4 h 15.18 v 51.876 h 2.244 l 23.496,-24.684 h 19.932 l -31.548,31.548 32.604,33.66 h -19.668 l -24.816,-26.532 h -2.244 v 26.532 z m 77.91607,26.4 v -13.2 h 36.036 q 3.696,0 3.696,-3.96 v -18.216 h -2.244 q -1.056,2.376 -3.432,4.752 -2.376,2.244 -6.336,3.828 -3.96,1.452 -10.032,1.452 -7.524,0 -13.332,-3.3 -5.808,-3.432 -8.976,-9.504 -3.168,-6.204 -3.168,-14.388 v -39.072 h 15.048 v 37.884 q 0,7.92 3.828,11.748 3.96,3.828 11.088,3.828 8.052,0 12.672,-5.28 4.752,-5.28 4.752,-15.18 v -33 h 15.048 v 77.616 q 0,6.468 -3.696,10.164 -3.696,3.828 -10.032,3.828 z"
     id="text4"
     style="font-weight:600;font-size:132px;font-family:'Space Grotesk', sans-serif;letter-spacing:-3;text-anchor:middle;fill:#ffffff"
     aria-label="Rocky" />
  <path
     d="m 368.85254,492.95999 h 2.76172 l 1.96875,-5.6875 h 8.39453 l 2.03711,5.6875 h 2.73437 l -7.49218,-20.37109 h -3.00782 z m 5.52344,-7.95703 1.43554,-4.12891 c 0.4375,-1.25781 1.06641,-3.19921 1.92774,-6.20703 0.86133,2.95313 1.46289,4.83985 1.95508,6.20703 l 1.47656,4.12891 z m 29.9414,8.3125 c 4.70313,0 7.39649,-2.57031 7.39649,-5.90625 0,-3.80078 -3.58203,-5.03125 -5.76953,-5.63281 l -2.03711,-0.56055 c -1.49024,-0.41016 -3.88282,-1.16211 -3.88282,-3.29492 0,-1.91406 1.75,-3.30859 4.38868,-3.30859 2.41992,0 4.25195,1.13476 4.48437,3.11718 h 2.54297 c -0.12305,-3.07617 -2.92578,-5.41406 -6.94531,-5.41406 -3.9375,0 -7,2.2832 -7,5.72852 0,2.70703 1.91406,4.38867 5.19531,5.31836 l 2.46094,0.69726 c 2.17383,0.61524 4.0332,1.33984 4.0332,3.30859 0,2.17383 -2.10547,3.62305 -4.86719,3.62305 -2.39258,0 -4.52539,-1.05273 -4.73047,-3.36328 h -2.66601 c 0.23242,3.41797 2.98047,5.6875 7.39648,5.6875 z m 19.70117,-0.082 c 1.3125,0 2.5293,-0.24609 3.62305,-0.72461 l 1.76367,2.36523 h 2.70703 l -2.625,-3.48632 c 2.20118,-1.77735 3.55469,-4.74414 3.55469,-8.59961 0,-6.4668 -3.80078,-10.47266 -9.02344,-10.47266 -5.22265,0 -9.05078,4.00586 -9.05078,10.47266 0,6.45312 3.82813,10.44531 9.05078,10.44531 z m -0.84765,-6.64453 2.95312,3.89648 c -0.65625,0.21875 -1.36718,0.3418 -2.10547,0.3418 -3.66406,0 -6.52148,-2.84375 -6.52148,-8.03906 0,-5.22266 2.85742,-8.06641 6.52148,-8.06641 3.63672,0 6.49415,2.83008 6.49415,8.06641 0,3.03515 -0.97071,5.26367 -2.50196,6.60351 l -2.13281,-2.80273 z m 14,6.37109 h 12.03125 v -2.29687 h -9.4336 V 472.5889 h -2.59765 z m 29.42187,-15.28515 h -3.14453 v -3.63672 h -2.46094 v 3.63672 h -2.29687 v 2.10546 h 2.29687 v 9.40625 c 0,2.50196 1.5586,3.96485 4.19727,3.96485 0.62891,0 1.32617,-0.0957 1.83203,-0.27344 l -0.50586,-2.07812 c -0.41015,0.082 -0.94336,0.16406 -1.25781,0.16406 -1.29883,0 -1.80469,-0.60156 -1.80469,-1.96875 v -9.21485 h 3.14453 z m 3.14453,15.28515 h 2.46094 v -9.57031 c 0,-2.06445 1.61328,-3.55469 3.81446,-3.55469 0.65625,0 1.32617,0.10938 1.47656,0.13672 v -2.47461 c -0.28711,-0.0137 -0.88867,-0.041 -1.24414,-0.041 -1.81836,0 -3.4043,1.02539 -3.96485,2.57031 h -0.16406 v -2.35156 h -2.37891 z m 14.82032,0.35547 c 2.58398,0 4.01953,-1.35352 4.53906,-2.43359 h 0.16406 v 2.07812 h 2.41992 v -10.07617 c 0,-4.77148 -3.67773,-5.40039 -5.72851,-5.40039 -2.36524,0 -4.99024,0.84766 -6.16602,3.62305 l 2.36524,0.77929 c 0.47851,-1.0664 1.66797,-2.24218 3.86914,-2.24218 2.11914,0 3.19922,1.09375 3.19922,2.99414 v 0.082 c 0,1.13476 -1.20313,1.05273 -3.92383,1.39453 -2.83008,0.35547 -5.94727,0.99805 -5.94727,4.49805 0,3.00781 2.31055,4.70312 5.20899,4.70312 z m 0.42383,-2.17383 c -1.83204,0 -3.15821,-0.82031 -3.15821,-2.40625 0,-1.73633 1.57227,-2.31054 3.36328,-2.54297 0.94336,-0.12304 3.62305,-0.39648 4.03321,-0.875 v 2.11914 c 0,1.87305 -1.51758,3.70508 -4.23828,3.70508 z m 13.48046,-7.34179 c 0,-2.61133 1.6543,-4.10157 3.85547,-4.10157 2.13282,0 3.44532,1.40821 3.44532,3.75977 v 9.50195 h 2.46093 v -9.70703 c 0,-3.86914 -2.07812,-5.76953 -5.16797,-5.76953 -2.05078,0 -3.6914,0.86133 -4.67578,3.02148 l -0.0137,-2.83007 h -2.36523 v 15.28515 h 2.46093 z m 19.27735,9.48828 c 3.58203,0 6.02929,-1.95508 6.02929,-4.63477 0,-2.0918 -1.29882,-3.47266 -4.07421,-4.12891 l -2.31055,-0.54687 c -1.79102,-0.42383 -2.57031,-1.05273 -2.57031,-2.1875 0,-1.27148 1.36718,-2.21484 3.18554,-2.21484 1.96875,0 2.83008,1.0664 3.25391,2.16015 l 2.22852,-0.57422 c -0.69727,-2.14648 -2.35157,-3.67773 -5.4961,-3.67773 -3.2539,0 -5.66015,1.83203 -5.66015,4.45703 0,2.14648 1.32617,3.51367 4.10156,4.16992 l 2.54297,0.60156 c 1.5039,0.35547 2.24218,1.05274 2.24218,2.10547 0,1.25782 -1.36718,2.31055 -3.5,2.31055 -1.83203,0 -3.07617,-0.75195 -3.51367,-2.43359 l -2.33789,0.56054 c 0.54688,2.63868 2.73438,4.03321 5.87891,4.03321 z m 16.69336,-15.61328 h -3.52735 v -1.49024 c 0,-1.47656 0.65625,-2.26953 2.17383,-2.26953 0.6836,0 1.06641,0.15039 1.32617,0.23242 l 0.6836,-2.10547 c -0.36914,-0.16406 -1.13477,-0.41015 -2.29688,-0.41015 -2.22851,0 -4.34765,1.35351 -4.34765,4.00586 v 2.03711 h -3.00782 v 2.10546 h 3.00782 v 13.17969 h 2.46093 V 479.7803 h 3.52735 z m 8.65429,15.61328 c 4.16993,0 6.98633,-3.15821 6.98633,-7.875 0,-4.78516 -2.8164,-7.92969 -6.98633,-7.92969 -4.15625,0 -6.95898,3.14453 -6.95898,7.92969 0,4.71679 2.80273,7.875 6.95898,7.875 z m 0,-2.20118 c -3.04882,0 -4.45703,-2.66601 -4.45703,-5.67382 0,-3.04883 1.40821,-5.72852 4.45703,-5.72852 3.08985,0 4.49805,2.69336 4.49805,5.72852 0,3.00781 -1.4082,5.67382 -4.49805,5.67382 z m 10.56836,1.87305 h 2.46094 v -9.57031 c 0,-2.06445 1.61328,-3.55469 3.81445,-3.55469 0.65625,0 1.32618,0.10938 1.47657,0.13672 v -2.47461 c -0.28711,-0.0137 -0.88868,-0.041 -1.24414,-0.041 -1.81836,0 -3.4043,1.02539 -3.96485,2.57031 h -0.16406 v -2.35156 h -2.37891 z m 10.97852,0 h 2.46094 v -9.625 c 0,-2.43359 1.62695,-3.6914 3.41797,-3.6914 1.72265,0 2.99414,1.13476 2.99414,2.83007 v 10.48633 h 2.46093 v -9.98047 c 0,-1.92773 1.25782,-3.33593 3.32227,-3.33593 1.64062,0 3.08984,0.875 3.08984,3.07617 v 10.24023 h 2.46094 V 482.6514 c 0,-3.54102 -2.16016,-5.25 -4.8125,-5.25 -2.21484,0 -4.08789,1.18945 -4.8125,3.11719 -0.54687,-1.88672 -1.88672,-3.11719 -3.89648,-3.11719 -1.80469,0 -3.52735,1.01172 -4.2793,3.07617 l -0.0137,-2.80273 h -2.39258 z m 28.80664,0.35547 c 2.58398,0 4.01953,-1.35352 4.53906,-2.43359 h 0.16406 v 2.07812 h 2.41993 v -10.07617 c 0,-4.77148 -3.67774,-5.40039 -5.72852,-5.40039 -2.36523,0 -4.99023,0.84766 -6.16601,3.62305 l 2.36523,0.77929 c 0.47852,-1.0664 1.66797,-2.24218 3.86914,-2.24218 2.11914,0 3.19922,1.09375 3.19922,2.99414 v 0.082 c 0,1.13476 -1.20313,1.05273 -3.92383,1.39453 -2.83008,0.35547 -5.94726,0.99805 -5.94726,4.49805 0,3.00781 2.31054,4.70312 5.20898,4.70312 z m 0.42383,-2.17383 c -1.83203,0 -3.15821,-0.82031 -3.15821,-2.40625 0,-1.73633 1.57227,-2.31054 3.36329,-2.54297 0.94336,-0.12304 3.62304,-0.39648 4.0332,-0.875 v 2.11914 c 0,1.87305 -1.51758,3.70508 -4.23828,3.70508 z m 17.03515,-13.46679 h -3.14453 v -3.63672 h -2.46093 v 3.63672 h -2.29688 v 2.10546 h 2.29688 v 9.40625 c 0,2.50196 1.55859,3.96485 4.19726,3.96485 0.62891,0 1.32617,-0.0957 1.83203,-0.27344 l -0.50586,-2.07812 c -0.41015,0.082 -0.94336,0.16406 -1.25781,0.16406 -1.29883,0 -1.80469,-0.60156 -1.80469,-1.96875 v -9.21485 h 3.14453 z m 3.14454,15.28515 h 2.46093 v -15.28515 h -2.46093 z m 1.24414,-17.78711 c 0.94336,0 1.72265,-0.72461 1.72265,-1.62695 0,-0.90234 -0.77929,-1.62695 -1.72265,-1.62695 -0.92969,0 -1.70899,0.72461 -1.70899,1.62695 0,0.90234 0.7793,1.62695 1.70899,1.62695 z m 11.75781,18.11524 c 4.16992,0 6.98633,-3.15821 6.98633,-7.875 0,-4.78516 -2.81641,-7.92969 -6.98633,-7.92969 -4.15625,0 -6.95899,3.14453 -6.95899,7.92969 0,4.71679 2.80274,7.875 6.95899,7.875 z m 0,-2.20118 c -3.04883,0 -4.45703,-2.66601 -4.45703,-5.67382 0,-3.04883 1.4082,-5.72852 4.45703,-5.72852 3.08984,0 4.49805,2.69336 4.49805,5.72852 0,3.00781 -1.40821,5.67382 -4.49805,5.67382 z m 13.0293,-7.2871 c 0,-2.61133 1.65429,-4.10157 3.85546,-4.10157 2.13282,0 3.44532,1.40821 3.44532,3.75977 v 9.50195 h 2.46093 v -9.70703 c 0,-3.86914 -2.07812,-5.76953 -5.16796,-5.76953 -2.05079,0 -3.69141,0.86133 -4.67579,3.02148 l -0.0137,-2.83007 h -2.36523 v 15.28515 h 2.46094 z m 28.38281,9.48828 c 3.13086,0 5.41406,-1.57227 6.125,-3.88282 l -2.37891,-0.65625 c -0.57422,1.5586 -1.92773,2.35157 -3.73242,2.35157 -2.70703,0 -4.56641,-1.75 -4.68945,-4.94922 h 11.04687 v -1.02539 c 0,-5.64649 -3.41797,-7.64258 -6.6582,-7.64258 -4.16992,0 -6.87695,3.26758 -6.87695,7.95703 0,4.70313 2.73437,7.84766 7.16406,7.84766 z m -4.66211,-9.21485 c 0.15039,-2.33789 1.75,-4.40234 4.375,-4.40234 2.51562,0 3.92383,1.80469 4.15625,4.40234 z m 17.02148,-0.27343 c 0,-2.61133 1.6543,-4.10157 3.85547,-4.10157 2.13281,0 3.44531,1.40821 3.44531,3.75977 v 9.50195 h 2.46094 v -9.70703 c 0,-3.86914 -2.07812,-5.76953 -5.16797,-5.76953 -2.05078,0 -3.6914,0.86133 -4.67578,3.02148 l -0.0137,-2.83007 h -2.36523 v 15.28515 h 2.46093 z m 20.27539,15.20312 c 3.71875,0 6.65821,-1.69531 6.65821,-5.64648 v -15.68164 h -2.39258 v 2.44726 h -0.23242 c -0.51953,-0.82031 -1.50391,-2.63867 -4.45703,-2.63867 -3.81446,0 -6.50782,3.03516 -6.50782,7.76562 0,4.79883 2.78907,7.46485 6.45313,7.46485 2.95312,0 3.92383,-1.68164 4.44336,-2.55664 h 0.23242 v 3.0625 c 0,2.51562 -1.76367,3.63672 -4.19727,3.63672 -2.69336,0 -3.65039,-1.36719 -4.29297,-2.25586 l -1.99609,1.28515 c 0.94336,1.68164 2.89844,3.11719 6.28906,3.11719 z m -0.0684,-8.47656 c -2.87109,0 -4.36132,-2.1875 -4.36132,-5.33203 0,-3.04883 1.44921,-5.50977 4.36132,-5.50977 2.81641,0 4.29297,2.26953 4.29297,5.50977 0,3.33593 -1.51758,5.33203 -4.29297,5.33203 z m 11.04688,2.43359 h 2.46094 v -15.28515 h -2.46094 z m 1.24414,-17.78711 c 0.94336,0 1.72266,-0.72461 1.72266,-1.62695 0,-0.90234 -0.7793,-1.62695 -1.72266,-1.62695 -0.92969,0 -1.70898,0.72461 -1.70898,1.62695 0,0.90234 0.77929,1.62695 1.70898,1.62695 z m 7.99805,8.62696 c 0,-2.61133 1.65429,-4.10157 3.85547,-4.10157 2.13281,0 3.44531,1.40821 3.44531,3.75977 v 9.50195 h 2.46094 v -9.70703 c 0,-3.86914 -2.07813,-5.76953 -5.16797,-5.76953 -2.05078,0 -3.69141,0.86133 -4.67578,3.02148 l -0.0137,-2.83007 h -2.36523 v 15.28515 h 2.46094 z m 20.50781,9.48828 c 3.13086,0 5.41406,-1.57227 6.125,-3.88282 l -2.37891,-0.65625 c -0.57422,1.5586 -1.92773,2.35157 -3.73242,2.35157 -2.70703,0 -4.56641,-1.75 -4.68945,-4.94922 h 11.04687 v -1.02539 c 0,-5.64649 -3.41797,-7.64258 -6.6582,-7.64258 -4.16992,0 -6.87695,3.26758 -6.87695,7.95703 0,4.70313 2.73437,7.84766 7.16406,7.84766 z m -4.66211,-9.21485 c 0.15039,-2.33789 1.75,-4.40234 4.375,-4.40234 2.51562,0 3.92383,1.80469 4.15625,4.40234 z m 29.53125,9.21485 c 3.81445,0 6.4668,-3.0625 6.4668,-7.92969 0,-4.83984 -2.66602,-7.875 -6.48047,-7.875 -2.98047,0 -3.92383,1.83203 -4.42969,2.63867 h -0.19141 v -7.5332 h -2.46093 v 20.37109 h 2.3789 v -2.36523 h 0.27344 c 0.50586,0.84765 1.53125,2.69336 4.44336,2.69336 z m -0.36914,-2.20118 c -2.77539,0 -4.29297,-2.35156 -4.29297,-5.75585 0,-3.37696 1.47656,-5.64649 4.29297,-5.64649 2.89844,0 4.33398,2.47461 4.33398,5.64649 0,3.21289 -1.47656,5.75585 -4.33398,5.75585 z m 15.59961,2.06446 c 2.00976,0 3.67773,-0.82031 4.67578,-3.04883 v 2.85742 h 2.37891 v -15.28515 h -2.47461 v 9.16015 c 0,2.61133 -1.6543,4.10156 -3.8418,4.10156 -2.13281,0 -3.45898,-1.4082 -3.45898,-3.75976 v -9.50195 h -2.46094 v 9.70703 c 0,3.86914 2.09179,5.76953 5.18164,5.76953 z m 11.375,-0.19141 h 2.46094 v -15.28515 h -2.46094 z m 1.24414,-17.78711 c 0.94336,0 1.72266,-0.72461 1.72266,-1.62695 0,-0.90234 -0.7793,-1.62695 -1.72266,-1.62695 -0.92969,0 -1.70899,0.72461 -1.70899,1.62695 0,0.90234 0.7793,1.62695 1.70899,1.62695 z m 7.99805,-2.58398 h -2.46094 v 20.37109 h 2.46094 z m 10.74609,5.08594 h -3.14453 v -3.63672 h -2.46094 v 3.63672 h -2.29687 v 2.10546 h 2.29687 v 9.40625 c 0,2.50196 1.55859,3.96485 4.19727,3.96485 0.6289,0 1.32617,-0.0957 1.83203,-0.27344 l -0.50586,-2.07812 c -0.41016,0.082 -0.94336,0.16406 -1.25781,0.16406 -1.29883,0 -1.80469,-0.60156 -1.80469,-1.96875 v -9.21485 h 3.14453 z m 11.01953,15.28515 h 2.46094 v -15.28515 h -2.46094 z m 1.24414,-17.78711 c 0.94336,0 1.72266,-0.72461 1.72266,-1.62695 0,-0.90234 -0.7793,-1.62695 -1.72266,-1.62695 -0.92969,0 -1.70898,0.72461 -1.70898,1.62695 0,0.90234 0.77929,1.62695 1.70898,1.62695 z m 7.99805,8.62696 c 0,-2.61133 1.6543,-4.10157 3.85547,-4.10157 2.13281,0 3.44531,1.40821 3.44531,3.75977 v 9.50195 h 2.46094 v -9.70703 c 0,-3.86914 -2.07813,-5.76953 -5.16797,-5.76953 -2.05078,0 -3.69141,0.86133 -4.67578,3.02148 l -0.0137,-2.83007 h -2.36524 v 15.28515 h 2.46094 z m 22.25781,9.16015 h 2.59766 v -7.90234 h 4.38867 c 0.16406,0 0.31445,0 0.47851,-0.0137 l 4.23829,7.91601 h 3.00781 l -4.56641,-8.38086 c 2.57031,-0.90234 3.77344,-2.99414 3.77344,-5.70117 0,-3.63672 -2.1875,-6.28906 -6.94531,-6.28906 h -6.97266 z m 2.59766,-10.21289 v -7.875 h 4.23828 c 3.24023,0 4.49805,1.58594 4.49805,4.00586 0,2.39258 -1.25782,3.86914 -4.47071,3.86914 z m 20.30273,10.4043 c 2.00977,0 3.67774,-0.82031 4.67578,-3.04883 v 2.85742 h 2.37891 v -15.28515 h -2.47461 v 9.16015 c 0,2.61133 -1.6543,4.10156 -3.8418,4.10156 -2.13281,0 -3.45898,-1.4082 -3.45898,-3.75976 v -9.50195 h -2.46094 v 9.70703 c 0,3.86914 2.0918,5.76953 5.18164,5.76953 z m 16.57031,0.13672 c 3.58204,0 6.0293,-1.95508 6.0293,-4.63477 0,-2.0918 -1.29883,-3.47266 -4.07422,-4.12891 l -2.31054,-0.54687 c -1.79102,-0.42383 -2.57032,-1.05273 -2.57032,-2.1875 0,-1.27148 1.36719,-2.21484 3.18555,-2.21484 1.96875,0 2.83008,1.0664 3.25391,2.16015 l 2.22851,-0.57422 c -0.69726,-2.14648 -2.35156,-3.67773 -5.49609,-3.67773 -3.25391,0 -5.66016,1.83203 -5.66016,4.45703 0,2.14648 1.32617,3.51367 4.10156,4.16992 l 2.54297,0.60156 c 1.50391,0.35547 2.24219,1.05274 2.24219,2.10547 0,1.25782 -1.36719,2.31055 -3.5,2.31055 -1.83203,0 -3.07617,-0.75195 -3.51367,-2.43359 l -2.33789,0.56054 c 0.54687,2.63868 2.73437,4.03321 5.8789,4.03321 z m 15.59961,-15.61328 h -3.14453 v -3.63672 h -2.46094 v 3.63672 h -2.29687 v 2.10546 h 2.29687 v 9.40625 c 0,2.50196 1.5586,3.96485 4.19727,3.96485 0.62891,0 1.32617,-0.0957 1.83203,-0.27344 l -0.50586,-2.07812 c -0.41015,0.082 -0.94336,0.16406 -1.25781,0.16406 -1.29883,0 -1.80469,-0.60156 -1.80469,-1.96875 v -9.21485 h 3.14453 z"
     id="text5"
     style="font-size:28px;font-family:Inter, sans-serif;text-anchor:middle;fill:#8a969c"
     aria-label="A SQL transformation engine built in Rust" />
  <path
     d="m 304.10181,526.76001 v -13.14 h 3.798 q 1.818,0 2.862,0.918 1.062,0.9 1.062,2.484 0,1.026 -0.648,1.836 -0.63,0.792 -1.638,0.972 v 0.054 q 0.756,0.09 1.332,0.54 0.594,0.45 0.918,1.152 0.342,0.684 0.342,1.512 0,1.692 -1.08,2.682 -1.062,0.99 -2.898,0.99 z m 1.746,-7.596 h 2.034 q 1.008,0 1.584,-0.522 0.576,-0.54 0.576,-1.458 0,-0.936 -0.576,-1.458 -0.576,-0.54 -1.566,-0.54 h -2.052 z m 0,6.03 h 2.142 q 1.098,0 1.728,-0.576 0.63,-0.594 0.63,-1.602 0,-1.044 -0.63,-1.692 -0.63,-0.648 -1.728,-0.648 h -2.142 z m 10.89601,1.566 v -9.9 h 1.764 v 1.908 h 0.018 q 0.144,-0.972 0.828,-1.53 0.702,-0.558 1.854,-0.558 1.53,0 2.376,0.954 0.846,0.936 0.846,2.646 v 0.864 h -1.782 v -0.846 q 0,-2.07 -2.034,-2.07 -1.026,0 -1.566,0.594 -0.522,0.594 -0.522,1.692 v 6.246 z m 14.838,0.18 q -1.53,0 -2.43,-0.846 -0.882,-0.864 -0.882,-2.25 0,-1.386 0.918,-2.232 0.936,-0.846 2.448,-0.846 h 2.898 v -0.756 q 0,-1.818 -2.016,-1.818 -0.9,0 -1.458,0.342 -0.54,0.324 -0.576,0.918 h -1.764 q 0.09,-1.206 1.098,-1.98 1.008,-0.792 2.7,-0.792 1.818,0 2.808,0.864 0.99,0.864 0.99,2.43 v 6.786 h -1.746 v -1.818 h -0.036 q -0.126,0.918 -0.918,1.458 -0.774,0.54 -2.034,0.54 z m 0.468,-1.494 q 1.134,0 1.8,-0.54 0.684,-0.558 0.684,-1.512 v -1.314 h -2.736 q -0.774,0 -1.26,0.468 -0.468,0.45 -0.468,1.206 0,0.774 0.522,1.242 0.522,0.45 1.458,0.45 z m 8.93401,1.314 v -9.9 h 1.764 v 1.89 h 0.018 q 0.126,-0.972 0.81,-1.512 0.702,-0.558 1.836,-0.558 1.476,0 2.358,0.936 0.882,0.936 0.882,2.52 v 6.624 h -1.782 v -6.336 q 0,-1.08 -0.54,-1.656 -0.54,-0.576 -1.476,-0.576 -0.972,0 -1.53,0.612 -0.558,0.594 -0.558,1.674 v 6.282 z m 16.26001,0.18 q -1.818,0 -2.916,-1.008 -1.098,-1.026 -1.098,-2.808 v -2.646 q 0,-1.764 1.098,-2.772 1.098,-1.026 2.916,-1.026 1.746,0 2.808,0.936 1.08,0.918 1.134,2.52 h -1.764 q -0.054,-0.9 -0.648,-1.386 -0.576,-0.504 -1.53,-0.504 -1.026,0 -1.638,0.594 -0.594,0.576 -0.594,1.638 v 2.646 q 0,1.08 0.594,1.656 0.612,0.576 1.638,0.576 0.972,0 1.548,-0.486 0.576,-0.486 0.63,-1.386 h 1.764 q -0.054,1.602 -1.134,2.538 -1.062,0.918 -2.808,0.918 z m 8.34001,-0.18 v -13.14 h 1.782 v 3.24 l -0.018,1.89 h 0.018 q 0.126,-0.972 0.81,-1.512 0.702,-0.558 1.836,-0.558 1.476,0 2.358,0.936 0.882,0.936 0.882,2.52 v 6.624 h -1.782 v -6.354 q 0,-1.062 -0.54,-1.638 -0.54,-0.576 -1.476,-0.576 -0.972,0 -1.53,0.612 -0.558,0.594 -0.558,1.674 v 6.282 z m 16.116,0.18 q -1.782,0 -2.88,-1.062 -1.08,-1.062 -1.08,-2.898 v -2.34 q 0,-1.836 1.08,-2.898 1.098,-1.062 2.88,-1.062 1.188,0 2.07,0.486 0.9,0.468 1.386,1.332 0.504,0.846 0.504,1.98 v 1.782 h -6.174 v 0.864 q 0,1.08 0.594,1.692 0.594,0.612 1.62,0.612 0.864,0 1.422,-0.324 0.558,-0.324 0.666,-0.9 h 1.782 q -0.18,1.26 -1.242,1.998 -1.062,0.738 -2.628,0.738 z m -2.214,-6.462 v 0.468 h 4.428 v -0.468 q 0,-1.134 -0.576,-1.746 -0.576,-0.612 -1.638,-0.612 -1.062,0 -1.638,0.612 -0.576,0.612 -0.576,1.746 z m 14.11801,6.426 q -1.692,0 -2.628,-0.756 -0.936,-0.756 -0.936,-2.124 h 1.764 q 0,0.648 0.468,1.026 0.486,0.36 1.332,0.36 h 0.792 q 0.882,0 1.35,-0.378 0.486,-0.378 0.486,-1.062 0,-1.206 -1.188,-1.35 l -2.664,-0.378 q -1.062,-0.162 -1.638,-0.864 -0.576,-0.72 -0.576,-1.854 0,-1.332 0.9,-2.07 0.9,-0.738 2.52,-0.738 h 0.792 q 1.512,0 2.448,0.72 0.936,0.72 0.99,1.908 h -1.8 q -0.036,-0.504 -0.468,-0.828 -0.432,-0.342 -1.17,-0.342 h -0.792 q -0.81,0 -1.26,0.36 -0.432,0.36 -0.432,0.972 0,0.99 0.99,1.116 l 2.502,0.36 q 2.574,0.342 2.574,2.988 0,1.404 -0.936,2.178 -0.918,0.756 -2.628,0.756 z m 24.99601,-4.806 q -0.684,0 -1.116,-0.414 -0.414,-0.414 -0.414,-1.062 0,-0.684 0.414,-1.116 0.432,-0.432 1.116,-0.432 0.684,0 1.098,0.432 0.432,0.432 0.432,1.116 0,0.648 -0.432,1.062 -0.414,0.414 -1.098,0.414 z m 20.80202,4.662 v -13.14 h 4.068 q 1.206,0 2.106,0.486 0.9,0.468 1.404,1.332 0.504,0.846 0.504,1.998 0,1.332 -0.684,2.286 -0.666,0.954 -1.782,1.35 l 2.646,5.688 h -1.962 l -2.502,-5.49 h -2.034 v 5.49 z m 1.764,-7.074 h 2.304 q 1.008,0 1.584,-0.612 0.594,-0.612 0.594,-1.62 0,-1.026 -0.594,-1.638 -0.594,-0.612 -1.584,-0.612 h -2.304 z m 14.334,7.254 q -1.782,0 -2.88,-1.062 -1.08,-1.062 -1.08,-2.898 v -2.34 q 0,-1.836 1.08,-2.898 1.098,-1.062 2.88,-1.062 1.188,0 2.07,0.486 0.9,0.468 1.386,1.332 0.504,0.846 0.504,1.98 v 1.782 h -6.174 v 0.864 q 0,1.08 0.594,1.692 0.594,0.612 1.62,0.612 0.864,0 1.422,-0.324 0.558,-0.324 0.666,-0.9 h 1.782 q -0.18,1.26 -1.242,1.998 -1.062,0.738 -2.628,0.738 z m -2.214,-6.462 v 0.468 h 4.428 v -0.468 q 0,-1.134 -0.576,-1.746 -0.576,-0.612 -1.638,-0.612 -1.062,0 -1.638,0.612 -0.576,0.612 -0.576,1.746 z m 10.69801,9.522 v -13.14 h 1.764 v 1.908 h 0.018 q 0.144,-0.972 0.864,-1.53 0.72,-0.558 1.836,-0.558 1.476,0 2.358,1.008 0.882,0.99 0.882,2.7 v 2.826 q 0,1.728 -0.882,2.736 -0.882,0.99 -2.358,0.99 -1.098,0 -1.818,-0.558 -0.72,-0.558 -0.882,-1.53 h -0.036 l 0.036,2.286 v 2.862 z m 3.852,-4.608 q 0.99,0 1.53,-0.504 0.558,-0.522 0.558,-1.674 v -2.808 q 0,-1.152 -0.558,-1.656 -0.54,-0.522 -1.53,-0.522 -0.954,0 -1.512,0.594 -0.558,0.594 -0.558,1.674 v 2.628 q 0,1.08 0.558,1.674 0.558,0.594 1.512,0.594 z m 13.74001,1.368 q -1.35,0 -2.16,-0.792 -0.81,-0.792 -0.81,-2.106 v -8.622 h -3.384 v -1.62 h 5.166 v 10.224 q 0,0.594 0.324,0.954 0.342,0.342 0.918,0.342 h 3.006 v 1.62 z m 9.90601,0.18 q -1.53,0 -2.43,-0.846 -0.882,-0.864 -0.882,-2.25 0,-1.386 0.918,-2.232 0.936,-0.846 2.448,-0.846 h 2.898 v -0.756 q 0,-1.818 -2.016,-1.818 -0.9,0 -1.458,0.342 -0.54,0.324 -0.576,0.918 h -1.764 q 0.09,-1.206 1.098,-1.98 1.008,-0.792 2.7,-0.792 1.818,0 2.808,0.864 0.99,0.864 0.99,2.43 v 6.786 h -1.746 v -1.818 h -0.036 q -0.126,0.918 -0.918,1.458 -0.774,0.54 -2.034,0.54 z m 0.468,-1.494 q 1.134,0 1.8,-0.54 0.684,-0.558 0.684,-1.512 v -1.314 h -2.736 q -0.774,0 -1.26,0.468 -0.468,0.45 -0.468,1.206 0,0.774 0.522,1.242 0.522,0.45 1.458,0.45 z m 10.5,4.554 1.44,-3.834 -3.69,-9.306 h 1.89 l 2.232,5.85 q 0.144,0.378 0.288,0.81 0.144,0.432 0.198,0.756 0.054,-0.324 0.18,-0.756 0.126,-0.432 0.27,-0.81 l 2.07,-5.85 h 1.89 l -4.914,13.14 z m 26.85001,-7.902 q -0.684,0 -1.116,-0.414 -0.414,-0.414 -0.414,-1.062 0,-0.684 0.414,-1.116 0.432,-0.432 1.116,-0.432 0.684,0 1.098,0.432 0.432,0.432 0.432,1.116 0,0.648 -0.432,1.062 -0.414,0.414 -1.098,0.414 z m 24.74402,4.842 q -1.818,0 -2.898,-1.008 -1.062,-1.026 -1.062,-2.808 v -5.886 q 0,-1.764 1.062,-2.772 1.08,-1.026 2.898,-1.026 1.8,0 2.862,1.026 1.08,1.026 1.08,2.772 h -1.782 q 0,-1.062 -0.576,-1.638 -0.576,-0.576 -1.584,-0.576 -1.026,0 -1.602,0.576 -0.576,0.576 -0.576,1.638 v 5.886 q 0,1.08 0.576,1.656 0.576,0.576 1.602,0.576 1.008,0 1.584,-0.576 0.576,-0.576 0.576,-1.656 h 1.782 q 0,1.764 -1.08,2.79 -1.062,1.026 -2.862,1.026 z m 12.156,-0.036 q -1.818,0 -2.898,-1.044 -1.062,-1.044 -1.062,-2.916 v -2.268 q 0,-1.872 1.062,-2.916 1.08,-1.044 2.898,-1.044 1.818,0 2.88,1.044 1.08,1.044 1.08,2.916 v 2.268 q 0,1.872 -1.08,2.916 -1.062,1.044 -2.88,1.044 z m 0,-1.566 q 1.008,0 1.584,-0.558 0.594,-0.576 0.594,-1.674 v -2.592 q 0,-1.098 -0.594,-1.656 -0.576,-0.576 -1.584,-0.576 -1.008,0 -1.602,0.576 -0.576,0.558 -0.576,1.656 v 2.592 q 0,1.098 0.576,1.674 0.594,0.558 1.602,0.558 z m 13.77602,1.422 q -1.35,0 -2.16,-0.792 -0.81,-0.792 -0.81,-2.106 v -8.622 h -3.384 v -1.62 h 5.166 v 10.224 q 0,0.594 0.324,0.954 0.342,0.342 0.918,0.342 h 3.006 v 1.62 z m 10.80599,0.18 q -1.746,0 -2.79,-1.026 -1.044,-1.026 -1.044,-2.79 v -6.264 h 1.782 v 6.264 q 0,1.044 0.54,1.656 0.558,0.594 1.512,0.594 0.972,0 1.53,-0.594 0.558,-0.612 0.558,-1.656 v -6.264 h 1.782 v 6.264 q 0,1.764 -1.062,2.79 -1.044,1.026 -2.808,1.026 z m 7.94402,-0.18 v -9.9 h 1.512 v 1.35 h 0.054 q 0.072,-0.684 0.504,-1.098 0.45,-0.432 1.134,-0.432 0.666,0 1.116,0.396 0.45,0.396 0.648,1.062 v 0 q 0.108,-0.684 0.558,-1.062 0.45,-0.396 1.134,-0.396 0.936,0 1.512,0.72 0.576,0.702 0.576,1.836 v 7.524 h -1.62 v -7.506 q 0,-0.558 -0.288,-0.882 -0.27,-0.342 -0.738,-0.342 -0.468,0 -0.738,0.324 -0.27,0.324 -0.27,0.9 v 7.506 h -1.44 v -7.506 q 0,-0.558 -0.27,-0.882 -0.27,-0.342 -0.738,-0.342 -0.468,0 -0.756,0.324 -0.27,0.324 -0.27,0.9 v 7.506 z m 12.85801,0 v -9.9 h 1.764 v 1.89 h 0.018 q 0.126,-0.972 0.81,-1.512 0.702,-0.558 1.836,-0.558 1.476,0 2.358,0.936 0.882,0.936 0.882,2.52 v 6.624 h -1.782 v -6.336 q 0,-1.08 -0.54,-1.656 -0.54,-0.576 -1.476,-0.576 -0.972,0 -1.53,0.612 -0.558,0.594 -0.558,1.674 v 6.282 z m 25.32001,0 v -13.14 h 1.782 v 11.52 h 5.85 v 1.62 z m 11.49002,0 v -1.62 h 3.474 v -6.66 h -3.114 v -1.62 h 4.896 v 8.28 h 3.258 v 1.62 z m 4.194,-11.646 q -0.612,0 -0.972,-0.306 -0.36,-0.324 -0.36,-0.864 0,-0.558 0.36,-0.882 0.36,-0.324 0.972,-0.324 0.612,0 0.972,0.324 0.36,0.324 0.36,0.882 0,0.54 -0.36,0.864 -0.36,0.306 -0.972,0.306 z m 8.19599,11.646 v -9.9 h 1.764 v 1.89 h 0.018 q 0.126,-0.972 0.81,-1.512 0.702,-0.558 1.836,-0.558 1.476,0 2.358,0.936 0.882,0.936 0.882,2.52 v 6.624 h -1.782 v -6.336 q 0,-1.08 -0.54,-1.656 -0.54,-0.576 -1.476,-0.576 -0.972,0 -1.53,0.612 -0.558,0.594 -0.558,1.674 v 6.282 z m 16.11601,0.18 q -1.782,0 -2.88,-1.062 -1.08,-1.062 -1.08,-2.898 v -2.34 q 0,-1.836 1.08,-2.898 1.098,-1.062 2.88,-1.062 1.188,0 2.07,0.486 0.9,0.468 1.386,1.332 0.504,0.846 0.504,1.98 v 1.782 h -6.174 v 0.864 q 0,1.08 0.594,1.692 0.594,0.612 1.62,0.612 0.864,0 1.422,-0.324 0.558,-0.324 0.666,-0.9 h 1.782 q -0.18,1.26 -1.242,1.998 -1.062,0.738 -2.628,0.738 z m -2.214,-6.462 v 0.468 h 4.428 v -0.468 q 0,-1.134 -0.576,-1.746 -0.576,-0.612 -1.638,-0.612 -1.062,0 -1.638,0.612 -0.576,0.612 -0.576,1.746 z m 13.59599,6.462 q -1.53,0 -2.43,-0.846 -0.882,-0.864 -0.882,-2.25 0,-1.386 0.918,-2.232 0.936,-0.846 2.448,-0.846 h 2.898 v -0.756 q 0,-1.818 -2.016,-1.818 -0.9,0 -1.458,0.342 -0.54,0.324 -0.576,0.918 h -1.764 q 0.09,-1.206 1.098,-1.98 1.008,-0.792 2.7,-0.792 1.818,0 2.808,0.864 0.99,0.864 0.99,2.43 v 6.786 h -1.746 v -1.818 h -0.036 q -0.126,0.918 -0.918,1.458 -0.774,0.54 -2.034,0.54 z m 0.468,-1.494 q 1.134,0 1.8,-0.54 0.684,-0.558 0.684,-1.512 v -1.314 h -2.736 q -0.774,0 -1.26,0.468 -0.468,0.45 -0.468,1.206 0,0.774 0.522,1.242 0.522,0.45 1.458,0.45 z m 10.21202,4.554 v -1.584 h 2.79 q 0.81,0 1.296,-0.468 0.486,-0.45 0.486,-1.242 v -0.828 l 0.036,-1.71 h -0.018 q -0.18,0.918 -0.882,1.422 -0.684,0.504 -1.764,0.504 -1.53,0 -2.412,-0.972 -0.882,-0.99 -0.882,-2.7 v -2.034 q 0,-1.71 0.882,-2.7 0.882,-1.008 2.412,-1.008 1.044,0 1.728,0.504 0.702,0.504 0.9,1.386 h 0.018 v -1.71 h 1.746 v 9.864 q 0,1.512 -0.954,2.394 -0.954,0.882 -2.592,0.882 z m 2.502,-5.4 q 0.954,0 1.512,-0.594 0.558,-0.594 0.558,-1.674 v -1.854 q 0,-1.062 -0.558,-1.656 -0.558,-0.594 -1.512,-0.594 -0.99,0 -1.53,0.576 -0.54,0.558 -0.54,1.53 v 2.16 q 0,0.972 0.54,1.548 0.54,0.558 1.53,0.558 z m 12.33602,2.34 q -1.782,0 -2.88,-1.062 -1.08,-1.062 -1.08,-2.898 v -2.34 q 0,-1.836 1.08,-2.898 1.098,-1.062 2.88,-1.062 1.188,0 2.07,0.486 0.9,0.468 1.386,1.332 0.504,0.846 0.504,1.98 v 1.782 h -6.174 v 0.864 q 0,1.08 0.594,1.692 0.594,0.612 1.62,0.612 0.864,0 1.422,-0.324 0.558,-0.324 0.666,-0.9 h 1.782 q -0.18,1.26 -1.242,1.998 -1.062,0.738 -2.628,0.738 z m -2.214,-6.462 v 0.468 h 4.428 v -0.468 q 0,-1.134 -0.576,-1.746 -0.576,-0.612 -1.638,-0.612 -1.062,0 -1.638,0.612 -0.576,0.612 -0.576,1.746 z m 26.81401,1.62 q -0.684,0 -1.116,-0.414 -0.414,-0.414 -0.414,-1.062 0,-0.684 0.414,-1.116 0.432,-0.432 1.116,-0.432 0.684,0 1.098,0.432 0.432,0.432 0.432,1.116 0,0.648 -0.432,1.062 -0.414,0.414 -1.098,0.414 z m 23.718,4.662 v -11.52 h -3.564 v -1.62 h 8.892 v 1.62 h -3.546 v 11.52 z m 10.93202,3.24 1.44,-3.834 -3.69,-9.306 h 1.89 l 2.232,5.85 q 0.144,0.378 0.288,0.81 0.144,0.432 0.198,0.756 0.054,-0.324 0.18,-0.756 0.126,-0.432 0.27,-0.81 l 2.07,-5.85 h 1.89 l -4.914,13.14 z m 10.73399,0 v -13.14 h 1.764 v 1.908 h 0.018 q 0.144,-0.972 0.864,-1.53 0.72,-0.558 1.836,-0.558 1.476,0 2.358,1.008 0.882,0.99 0.882,2.7 v 2.826 q 0,1.728 -0.882,2.736 -0.882,0.99 -2.358,0.99 -1.098,0 -1.818,-0.558 -0.72,-0.558 -0.882,-1.53 h -0.036 l 0.036,2.286 v 2.862 z m 3.852,-4.608 q 0.99,0 1.53,-0.504 0.558,-0.522 0.558,-1.674 v -2.808 q 0,-1.152 -0.558,-1.656 -0.54,-0.522 -1.53,-0.522 -0.954,0 -1.512,0.594 -0.558,0.594 -0.558,1.674 v 2.628 q 0,1.08 0.558,1.674 0.558,0.594 1.512,0.594 z m 12.26402,1.548 q -1.782,0 -2.88,-1.062 -1.08,-1.062 -1.08,-2.898 v -2.34 q 0,-1.836 1.08,-2.898 1.098,-1.062 2.88,-1.062 1.188,0 2.07,0.486 0.9,0.468 1.386,1.332 0.504,0.846 0.504,1.98 v 1.782 h -6.174 v 0.864 q 0,1.08 0.594,1.692 0.594,0.612 1.62,0.612 0.864,0 1.422,-0.324 0.558,-0.324 0.666,-0.9 h 1.782 q -0.18,1.26 -1.242,1.998 -1.062,0.738 -2.628,0.738 z m -2.214,-6.462 v 0.468 h 4.428 v -0.468 q 0,-1.134 -0.576,-1.746 -0.576,-0.612 -1.638,-0.612 -1.062,0 -1.638,0.612 -0.576,0.612 -0.576,1.746 z m 11.63401,1.134 v -1.602 h 5.76 v 1.602 z m 15.25199,5.328 q -1.944,0 -3.096,-1.008 -1.152,-1.026 -1.152,-2.808 h 1.782 q 0,1.044 0.666,1.638 0.666,0.594 1.8,0.594 1.08,0 1.71,-0.594 0.648,-0.612 0.648,-1.62 0,-0.756 -0.414,-1.314 -0.414,-0.576 -1.17,-0.774 l -1.944,-0.522 q -1.278,-0.36 -2.034,-1.296 -0.738,-0.954 -0.738,-2.25 0,-1.062 0.468,-1.854 0.486,-0.81 1.35,-1.242 0.864,-0.45 1.998,-0.45 1.152,0 2.016,0.45 0.882,0.432 1.368,1.224 0.486,0.792 0.486,1.836 h -1.764 q 0,-0.864 -0.594,-1.404 -0.576,-0.54 -1.512,-0.54 -0.936,0 -1.512,0.54 -0.558,0.54 -0.558,1.404 0,0.702 0.378,1.188 0.378,0.468 1.062,0.666 l 1.998,0.54 q 1.35,0.36 2.106,1.386 0.756,1.008 0.756,2.412 0,1.152 -0.504,2.016 -0.504,0.846 -1.44,1.314 -0.918,0.468 -2.16,0.468 z m 11.30999,0 q -1.53,0 -2.43,-0.846 -0.882,-0.864 -0.882,-2.25 0,-1.386 0.918,-2.232 0.936,-0.846 2.448,-0.846 h 2.898 v -0.756 q 0,-1.818 -2.016,-1.818 -0.9,0 -1.458,0.342 -0.54,0.324 -0.576,0.918 h -1.764 q 0.09,-1.206 1.098,-1.98 1.008,-0.792 2.7,-0.792 1.818,0 2.808,0.864 0.99,0.864 0.99,2.43 v 6.786 h -1.746 v -1.818 h -0.036 q -0.126,0.918 -0.918,1.458 -0.774,0.54 -2.034,0.54 z m 0.468,-1.494 q 1.134,0 1.8,-0.54 0.684,-0.558 0.684,-1.512 v -1.314 h -2.736 q -0.774,0 -1.26,0.468 -0.468,0.45 -0.468,1.206 0,0.774 0.522,1.242 0.522,0.45 1.458,0.45 z m 11.14805,1.314 v -6.93 h -2.844 v -1.62 h 2.844 v -1.998 q 0,-1.188 0.774,-1.89 0.774,-0.702 2.106,-0.702 h 2.898 v 1.602 h -2.898 q -1.098,0 -1.098,1.008 v 1.98 h 3.996 v 1.62 h -3.996 v 6.93 z m 13.90199,0.18 q -1.782,0 -2.88,-1.062 -1.08,-1.062 -1.08,-2.898 v -2.34 q 0,-1.836 1.08,-2.898 1.098,-1.062 2.88,-1.062 1.188,0 2.07,0.486 0.9,0.468 1.386,1.332 0.504,0.846 0.504,1.98 v 1.782 h -6.174 v 0.864 q 0,1.08 0.594,1.692 0.594,0.612 1.62,0.612 0.864,0 1.422,-0.324 0.558,-0.324 0.666,-0.9 h 1.782 q -0.18,1.26 -1.242,1.998 -1.062,0.738 -2.628,0.738 z m -2.214,-6.462 v 0.468 h 4.428 v -0.468 q 0,-1.134 -0.576,-1.746 -0.576,-0.612 -1.638,-0.612 -1.062,0 -1.638,0.612 -0.576,0.612 -0.576,1.746 z m 26.95803,6.462 q -1.818,0 -2.898,-1.008 -1.062,-1.026 -1.062,-2.808 v -5.886 q 0,-1.764 1.062,-2.772 1.08,-1.026 2.898,-1.026 1.8,0 2.862,1.026 1.08,1.026 1.08,2.772 h -1.782 q 0,-1.062 -0.576,-1.638 -0.576,-0.576 -1.584,-0.576 -1.026,0 -1.602,0.576 -0.576,0.576 -0.576,1.638 v 5.886 q 0,1.08 0.576,1.656 0.576,0.576 1.602,0.576 1.008,0 1.584,-0.576 0.576,-0.576 0.576,-1.656 h 1.782 q 0,1.764 -1.08,2.79 -1.062,1.026 -2.862,1.026 z m 12.15599,-0.036 q -1.818,0 -2.898,-1.044 -1.062,-1.044 -1.062,-2.916 v -2.268 q 0,-1.872 1.062,-2.916 1.08,-1.044 2.898,-1.044 1.818,0 2.88,1.044 1.08,1.044 1.08,2.916 v 2.268 q 0,1.872 -1.08,2.916 -1.062,1.044 -2.88,1.044 z m 0,-1.566 q 1.008,0 1.584,-0.558 0.594,-0.576 0.594,-1.674 v -2.592 q 0,-1.098 -0.594,-1.656 -0.576,-0.576 -1.584,-0.576 -1.008,0 -1.602,0.576 -0.576,0.558 -0.576,1.656 v 2.592 q 0,1.098 0.576,1.674 0.594,0.558 1.602,0.558 z m 7.92599,1.422 v -9.9 h 1.512 v 1.35 h 0.054 q 0.072,-0.684 0.504,-1.098 0.45,-0.432 1.134,-0.432 0.666,0 1.116,0.396 0.45,0.396 0.648,1.062 v 0 q 0.108,-0.684 0.558,-1.062 0.45,-0.396 1.134,-0.396 0.936,0 1.512,0.72 0.576,0.702 0.576,1.836 v 7.524 h -1.62 v -7.506 q 0,-0.558 -0.288,-0.882 -0.27,-0.342 -0.738,-0.342 -0.468,0 -0.738,0.324 -0.27,0.324 -0.27,0.9 v 7.506 h -1.44 v -7.506 q 0,-0.558 -0.27,-0.882 -0.27,-0.342 -0.738,-0.342 -0.468,0 -0.756,0.324 -0.27,0.324 -0.27,0.9 v 7.506 z m 12.85805,3.24 v -13.14 h 1.764 v 1.908 h 0.018 q 0.144,-0.972 0.864,-1.53 0.72,-0.558 1.836,-0.558 1.476,0 2.358,1.008 0.882,0.99 0.882,2.7 v 2.826 q 0,1.728 -0.882,2.736 -0.882,0.99 -2.358,0.99 -1.098,0 -1.818,-0.558 -0.72,-0.558 -0.882,-1.53 h -0.036 l 0.036,2.286 v 2.862 z m 3.852,-4.608 q 0.99,0 1.53,-0.504 0.558,-0.522 0.558,-1.674 v -2.808 q 0,-1.152 -0.558,-1.656 -0.54,-0.522 -1.53,-0.522 -0.954,0 -1.512,0.594 -0.558,0.594 -0.558,1.674 v 2.628 q 0,1.08 0.558,1.674 0.558,0.594 1.512,0.594 z m 8.35799,1.368 v -1.62 h 3.474 v -6.66 h -3.114 v -1.62 h 4.896 v 8.28 h 3.258 v 1.62 z m 4.194,-11.646 q -0.612,0 -0.972,-0.306 -0.36,-0.324 -0.36,-0.864 0,-0.558 0.36,-0.882 0.36,-0.324 0.972,-0.324 0.612,0 0.972,0.324 0.36,0.324 0.36,0.882 0,0.54 -0.36,0.864 -0.36,0.306 -0.972,0.306 z m 13.48798,11.646 q -1.35,0 -2.16,-0.792 -0.81,-0.792 -0.81,-2.106 v -8.622 h -3.384 v -1.62 h 5.166 v 10.224 q 0,0.594 0.324,0.954 0.342,0.342 0.918,0.342 h 3.006 v 1.62 z m 10.82405,0.18 q -1.782,0 -2.88,-1.062 -1.08,-1.062 -1.08,-2.898 v -2.34 q 0,-1.836 1.08,-2.898 1.098,-1.062 2.88,-1.062 1.188,0 2.07,0.486 0.9,0.468 1.386,1.332 0.504,0.846 0.504,1.98 v 1.782 h -6.174 v 0.864 q 0,1.08 0.594,1.692 0.594,0.612 1.62,0.612 0.864,0 1.422,-0.324 0.558,-0.324 0.666,-0.9 h 1.782 q -0.18,1.26 -1.242,1.998 -1.062,0.738 -2.628,0.738 z m -2.214,-6.462 v 0.468 h 4.428 v -0.468 q 0,-1.134 -0.576,-1.746 -0.576,-0.612 -1.638,-0.612 -1.062,0 -1.638,0.612 -0.576,0.612 -0.576,1.746 z m 11.05799,6.282 v -9.9 h 1.764 v 1.908 h 0.018 q 0.144,-0.972 0.828,-1.53 0.702,-0.558 1.854,-0.558 1.53,0 2.376,0.954 0.846,0.936 0.846,2.646 v 0.864 h -1.782 v -0.846 q 0,-2.07 -2.034,-2.07 -1.026,0 -1.566,0.594 -0.522,0.594 -0.522,1.692 v 6.246 z"
     id="text6"
     style="font-weight:500;font-size:18px;font-family:'JetBrains Mono', monospace;letter-spacing:1.5;text-anchor:middle;fill:#ff6a00"
     aria-label="Branches · Replay · Column Lineage · Type-Safe Compiler" />
  <path
     d="m 371.73385,552.76001 v -13.14 h 4.266 q 1.26,0 2.178,0.486 0.918,0.486 1.422,1.368 0.504,0.864 0.504,2.07 0,1.188 -0.504,2.07 -0.504,0.864 -1.44,1.35 -0.918,0.486 -2.16,0.486 h -2.484 v 5.31 z m 1.782,-6.894 h 2.484 q 1.044,0 1.656,-0.63 0.612,-0.648 0.612,-1.692 0,-1.062 -0.612,-1.692 -0.612,-0.648 -1.656,-0.648 h -2.484 z m 14.33401,7.074 q -1.782,0 -2.88,-1.062 -1.08,-1.062 -1.08,-2.898 v -2.34 q 0,-1.836 1.08,-2.898 1.098,-1.062 2.88,-1.062 1.188,0 2.07,0.486 0.9,0.468 1.386,1.332 0.504,0.846 0.504,1.98 v 1.782 h -6.174 v 0.864 q 0,1.08 0.594,1.692 0.594,0.612 1.62,0.612 0.864,0 1.422,-0.324 0.558,-0.324 0.666,-0.9 h 1.782 q -0.18,1.26 -1.242,1.998 -1.062,0.738 -2.628,0.738 z m -2.214,-6.462 v 0.468 h 4.428 v -0.468 q 0,-1.134 -0.576,-1.746 -0.576,-0.612 -1.638,-0.612 -1.062,0 -1.638,0.612 -0.576,0.612 -0.576,1.746 z m 11.058,6.282 v -9.9 h 1.764 v 1.908 h 0.018 q 0.144,-0.972 0.828,-1.53 0.702,-0.558 1.854,-0.558 1.53,0 2.376,0.954 0.846,0.936 0.846,2.646 v 0.864 h -1.782 v -0.846 q 0,-2.07 -2.034,-2.07 -1.026,0 -1.566,0.594 -0.522,0.594 -0.522,1.692 v 6.246 z m 12.87601,-5.148 v -1.602 h 5.76 v 1.602 z m 11.00401,5.148 v -13.14 h 2.52 l 1.62,5.67 1.692,-5.67 h 2.538 v 13.14 h -1.71 v -6.03 q 0,-0.954 0.036,-2.106 0.036,-1.17 0.09,-2.322 0.072,-1.17 0.144,-2.106 l -2.052,6.732 h -1.512 l -1.98,-6.57 q 0.162,1.314 0.234,2.934 0.072,1.602 0.072,3.438 v 6.03 z m 16.476,0.144 q -1.818,0 -2.898,-1.044 -1.062,-1.044 -1.062,-2.916 v -2.268 q 0,-1.872 1.062,-2.916 1.08,-1.044 2.898,-1.044 1.818,0 2.88,1.044 1.08,1.044 1.08,2.916 v 2.268 q 0,1.872 -1.08,2.916 -1.062,1.044 -2.88,1.044 z m 0,-1.566 q 1.008,0 1.584,-0.558 0.594,-0.576 0.594,-1.674 v -2.592 q 0,-1.098 -0.594,-1.656 -0.576,-0.576 -1.584,-0.576 -1.008,0 -1.602,0.576 -0.576,0.558 -0.576,1.656 v 2.592 q 0,1.098 0.576,1.674 0.594,0.558 1.602,0.558 z m 11.65201,1.602 q -1.494,0 -2.376,-0.99 -0.882,-1.008 -0.882,-2.718 v -2.844 q 0,-1.71 0.882,-2.7 0.882,-1.008 2.376,-1.008 1.098,0 1.818,0.558 0.738,0.558 0.9,1.53 v 0 l -0.036,-2.304 v -2.844 h 1.782 v 13.14 h -1.764 v -1.926 0 q -0.162,0.99 -0.882,1.548 -0.72,0.558 -1.818,0.558 z m 0.612,-1.548 q 0.954,0 1.512,-0.594 0.558,-0.594 0.558,-1.674 v -2.628 q 0,-1.08 -0.558,-1.674 -0.558,-0.594 -1.512,-0.594 -0.99,0 -1.548,0.522 -0.54,0.504 -0.54,1.656 v 2.808 q 0,1.152 0.54,1.674 0.558,0.504 1.548,0.504 z m 12.33601,1.548 q -1.782,0 -2.88,-1.062 -1.08,-1.062 -1.08,-2.898 v -2.34 q 0,-1.836 1.08,-2.898 1.098,-1.062 2.88,-1.062 1.188,0 2.07,0.486 0.9,0.468 1.386,1.332 0.504,0.846 0.504,1.98 v 1.782 h -6.174 v 0.864 q 0,1.08 0.594,1.692 0.594,0.612 1.62,0.612 0.864,0 1.422,-0.324 0.558,-0.324 0.666,-0.9 h 1.782 q -0.18,1.26 -1.242,1.998 -1.062,0.738 -2.628,0.738 z m -2.214,-6.462 v 0.468 h 4.428 v -0.468 q 0,-1.134 -0.576,-1.746 -0.576,-0.612 -1.638,-0.612 -1.062,0 -1.638,0.612 -0.576,0.612 -0.576,1.746 z m 15.99,6.282 q -1.35,0 -2.16,-0.792 -0.81,-0.792 -0.81,-2.106 v -8.622 h -3.384 v -1.62 h 5.166 v 10.224 q 0,0.594 0.324,0.954 0.342,0.342 0.918,0.342 h 3.006 v 1.62 z m 23.26802,0.18 q -1.818,0 -2.898,-1.008 -1.062,-1.026 -1.062,-2.808 v -5.886 q 0,-1.764 1.062,-2.772 1.08,-1.026 2.898,-1.026 1.8,0 2.862,1.026 1.08,1.026 1.08,2.772 h -1.782 q 0,-1.062 -0.576,-1.638 -0.576,-0.576 -1.584,-0.576 -1.026,0 -1.602,0.576 -0.576,0.576 -0.576,1.638 v 5.886 q 0,1.08 0.576,1.656 0.576,0.576 1.602,0.576 1.008,0 1.584,-0.576 0.576,-0.576 0.576,-1.656 h 1.782 q 0,1.764 -1.08,2.79 -1.062,1.026 -2.862,1.026 z m 12.15601,-0.036 q -1.818,0 -2.898,-1.044 -1.062,-1.044 -1.062,-2.916 v -2.268 q 0,-1.872 1.062,-2.916 1.08,-1.044 2.898,-1.044 1.818,0 2.88,1.044 1.08,1.044 1.08,2.916 v 2.268 q 0,1.872 -1.08,2.916 -1.062,1.044 -2.88,1.044 z m 0,-1.566 q 1.008,0 1.584,-0.558 0.594,-0.576 0.594,-1.674 v -2.592 q 0,-1.098 -0.594,-1.656 -0.576,-0.576 -1.584,-0.576 -1.008,0 -1.602,0.576 -0.576,0.558 -0.576,1.656 v 2.592 q 0,1.098 0.576,1.674 0.594,0.558 1.602,0.558 z m 11.904,1.566 q -1.692,0 -2.628,-0.756 -0.936,-0.756 -0.936,-2.124 h 1.764 q 0,0.648 0.468,1.026 0.486,0.36 1.332,0.36 h 0.792 q 0.882,0 1.35,-0.378 0.486,-0.378 0.486,-1.062 0,-1.206 -1.188,-1.35 l -2.664,-0.378 q -1.062,-0.162 -1.638,-0.864 -0.576,-0.72 -0.576,-1.854 0,-1.332 0.9,-2.07 0.9,-0.738 2.52,-0.738 h 0.792 q 1.512,0 2.448,0.72 0.936,0.72 0.99,1.908 h -1.8 q -0.036,-0.504 -0.468,-0.828 -0.432,-0.342 -1.17,-0.342 h -0.792 q -0.81,0 -1.26,0.36 -0.432,0.36 -0.432,0.972 0,0.99 0.99,1.116 l 2.502,0.36 q 2.574,0.342 2.574,2.988 0,1.404 -0.936,2.178 -0.918,0.756 -2.628,0.756 z m 13.686,-0.144 q -1.278,0 -2.034,-0.738 -0.738,-0.738 -0.738,-1.962 v -5.58 h -2.826 v -1.62 h 2.826 v -2.79 h 1.782 v 2.79 h 4.014 v 1.62 h -4.014 v 5.562 q 0,0.486 0.27,0.792 0.288,0.306 0.756,0.306 h 2.898 v 1.62 z m 23.61003,-4.662 q -0.684,0 -1.116,-0.414 -0.414,-0.414 -0.414,-1.062 0,-0.684 0.414,-1.116 0.432,-0.432 1.116,-0.432 0.684,0 1.098,0.432 0.432,0.432 0.432,1.116 0,0.648 -0.432,1.062 -0.414,0.414 -1.098,0.414 z m 20.028,4.662 3.402,-13.14 h 2.358 l 3.384,13.14 h -1.818 l -0.828,-3.42 h -3.852 l -0.828,3.42 z m 3.006,-4.896 h 3.132 l -0.936,-3.924 q -0.27,-1.08 -0.432,-1.836 -0.162,-0.756 -0.198,-1.026 -0.036,0.27 -0.198,1.026 -0.162,0.756 -0.414,1.818 z m 10.284,4.896 v -1.62 h 2.682 v -9.9 h -2.682 v -1.62 h 7.164 v 1.62 h -2.682 v 9.9 h 2.682 v 1.62 z m 24.60003,0 v -1.62 h 2.682 v -9.9 h -2.682 v -1.62 h 7.164 v 1.62 h -2.682 v 9.9 h 2.682 v 1.62 z m 12.066,0 v -9.9 h 1.764 v 1.89 h 0.018 q 0.126,-0.972 0.81,-1.512 0.702,-0.558 1.836,-0.558 1.476,0 2.358,0.936 0.882,0.936 0.882,2.52 v 6.624 h -1.782 v -6.336 q 0,-1.08 -0.54,-1.656 -0.54,-0.576 -1.476,-0.576 -0.972,0 -1.53,0.612 -0.558,0.594 -0.558,1.674 v 6.282 z m 17.10602,0 q -1.278,0 -2.034,-0.738 -0.738,-0.738 -0.738,-1.962 v -5.58 h -2.826 v -1.62 h 2.826 v -2.79 h 1.782 v 2.79 h 4.014 v 1.62 h -4.014 v 5.562 q 0,0.486 0.27,0.792 0.288,0.306 0.756,0.306 h 2.898 v 1.62 z m 11.30999,0.18 q -1.782,0 -2.88,-1.062 -1.08,-1.062 -1.08,-2.898 v -2.34 q 0,-1.836 1.08,-2.898 1.098,-1.062 2.88,-1.062 1.188,0 2.07,0.486 0.9,0.468 1.386,1.332 0.504,0.846 0.504,1.98 v 1.782 h -6.174 v 0.864 q 0,1.08 0.594,1.692 0.594,0.612 1.62,0.612 0.864,0 1.422,-0.324 0.558,-0.324 0.666,-0.9 h 1.782 q -0.18,1.26 -1.242,1.998 -1.062,0.738 -2.628,0.738 z m -2.214,-6.462 v 0.468 h 4.428 v -0.468 q 0,-1.134 -0.576,-1.746 -0.576,-0.612 -1.638,-0.612 -1.062,0 -1.638,0.612 -0.576,0.612 -0.576,1.746 z m 10.69801,6.282 v -9.9 h 1.764 v 1.89 h 0.018 q 0.126,-0.972 0.81,-1.512 0.702,-0.558 1.836,-0.558 1.476,0 2.358,0.936 0.882,0.936 0.882,2.52 v 6.624 h -1.782 v -6.336 q 0,-1.08 -0.54,-1.656 -0.54,-0.576 -1.476,-0.576 -0.972,0 -1.53,0.612 -0.558,0.594 -0.558,1.674 v 6.282 z m 17.10602,0 q -1.278,0 -2.034,-0.738 -0.738,-0.738 -0.738,-1.962 v -5.58 h -2.826 v -1.62 h 2.826 v -2.79 h 1.782 v 2.79 h 4.014 v 1.62 h -4.014 v 5.562 q 0,0.486 0.27,0.792 0.288,0.306 0.756,0.306 h 2.898 v 1.62 z m 23.61001,-4.662 q -0.684,0 -1.116,-0.414 -0.414,-0.414 -0.414,-1.062 0,-0.684 0.414,-1.116 0.432,-0.432 1.116,-0.432 0.684,0 1.098,0.432 0.432,0.432 0.432,1.116 0,0.648 -0.432,1.062 -0.414,0.414 -1.098,0.414 z m 21.504,4.662 v -13.14 h 1.782 v 11.52 h 5.85 v 1.62 z m 14.47802,0.18 q -1.53,0 -2.43,-0.846 -0.882,-0.864 -0.882,-2.25 0,-1.386 0.918,-2.232 0.936,-0.846 2.448,-0.846 h 2.898 v -0.756 q 0,-1.818 -2.016,-1.818 -0.9,0 -1.458,0.342 -0.54,0.324 -0.576,0.918 h -1.764 q 0.09,-1.206 1.098,-1.98 1.008,-0.792 2.7,-0.792 1.818,0 2.808,0.864 0.99,0.864 0.99,2.43 v 6.786 h -1.746 v -1.818 h -0.036 q -0.126,0.918 -0.918,1.458 -0.774,0.54 -2.034,0.54 z m 0.468,-1.494 q 1.134,0 1.8,-0.54 0.684,-0.558 0.684,-1.512 v -1.314 h -2.736 q -0.774,0 -1.26,0.468 -0.468,0.45 -0.468,1.206 0,0.774 0.522,1.242 0.522,0.45 1.458,0.45 z m 8.93399,1.314 v -9.9 h 1.764 v 1.89 h 0.018 q 0.126,-0.972 0.81,-1.512 0.702,-0.558 1.836,-0.558 1.476,0 2.358,0.936 0.882,0.936 0.882,2.52 v 6.624 h -1.782 v -6.336 q 0,-1.08 -0.54,-1.656 -0.54,-0.576 -1.476,-0.576 -0.972,0 -1.53,0.612 -0.558,0.594 -0.558,1.674 v 6.282 z m 13.57802,3.24 v -1.584 h 2.79 q 0.81,0 1.296,-0.468 0.486,-0.45 0.486,-1.242 v -0.828 l 0.036,-1.71 h -0.018 q -0.18,0.918 -0.882,1.422 -0.684,0.504 -1.764,0.504 -1.53,0 -2.412,-0.972 -0.882,-0.99 -0.882,-2.7 v -2.034 q 0,-1.71 0.882,-2.7 0.882,-1.008 2.412,-1.008 1.044,0 1.728,0.504 0.702,0.504 0.9,1.386 h 0.018 v -1.71 h 1.746 v 9.864 q 0,1.512 -0.954,2.394 -0.954,0.882 -2.592,0.882 z m 2.502,-5.4 q 0.954,0 1.512,-0.594 0.558,-0.594 0.558,-1.674 v -1.854 q 0,-1.062 -0.558,-1.656 -0.558,-0.594 -1.512,-0.594 -0.99,0 -1.53,0.576 -0.54,0.558 -0.54,1.53 v 2.16 q 0,0.972 0.54,1.548 0.54,0.558 1.53,0.558 z m 12.31802,2.34 q -1.746,0 -2.79,-1.026 -1.044,-1.026 -1.044,-2.79 v -6.264 h 1.782 v 6.264 q 0,1.044 0.54,1.656 0.558,0.594 1.512,0.594 0.972,0 1.53,-0.594 0.558,-0.612 0.558,-1.656 v -6.264 h 1.782 v 6.264 q 0,1.764 -1.062,2.79 -1.044,1.026 -2.808,1.026 z m 11.39998,0 q -1.53,0 -2.43,-0.846 -0.882,-0.864 -0.882,-2.25 0,-1.386 0.918,-2.232 0.936,-0.846 2.448,-0.846 h 2.898 v -0.756 q 0,-1.818 -2.016,-1.818 -0.9,0 -1.458,0.342 -0.54,0.324 -0.576,0.918 h -1.764 q 0.09,-1.206 1.098,-1.98 1.008,-0.792 2.7,-0.792 1.818,0 2.808,0.864 0.99,0.864 0.99,2.43 v 6.786 h -1.746 v -1.818 h -0.036 q -0.126,0.918 -0.918,1.458 -0.774,0.54 -2.034,0.54 z m 0.468,-1.494 q 1.134,0 1.8,-0.54 0.684,-0.558 0.684,-1.512 v -1.314 h -2.736 q -0.774,0 -1.26,0.468 -0.468,0.45 -0.468,1.206 0,0.774 0.522,1.242 0.522,0.45 1.458,0.45 z m 10.21202,4.554 v -1.584 h 2.79 q 0.81,0 1.296,-0.468 0.486,-0.45 0.486,-1.242 v -0.828 l 0.036,-1.71 h -0.018 q -0.18,0.918 -0.882,1.422 -0.684,0.504 -1.764,0.504 -1.53,0 -2.412,-0.972 -0.882,-0.99 -0.882,-2.7 v -2.034 q 0,-1.71 0.882,-2.7 0.882,-1.008 2.412,-1.008 1.044,0 1.728,0.504 0.702,0.504 0.9,1.386 h 0.018 v -1.71 h 1.746 v 9.864 q 0,1.512 -0.954,2.394 -0.954,0.882 -2.592,0.882 z m 2.502,-5.4 q 0.954,0 1.512,-0.594 0.558,-0.594 0.558,-1.674 v -1.854 q 0,-1.062 -0.558,-1.656 -0.558,-0.594 -1.512,-0.594 -0.99,0 -1.53,0.576 -0.54,0.558 -0.54,1.53 v 2.16 q 0,0.972 0.54,1.548 0.54,0.558 1.53,0.558 z m 12.33599,2.34 q -1.782,0 -2.88,-1.062 -1.08,-1.062 -1.08,-2.898 v -2.34 q 0,-1.836 1.08,-2.898 1.098,-1.062 2.88,-1.062 1.188,0 2.07,0.486 0.9,0.468 1.386,1.332 0.504,0.846 0.504,1.98 v 1.782 h -6.174 v 0.864 q 0,1.08 0.594,1.692 0.594,0.612 1.62,0.612 0.864,0 1.422,-0.324 0.558,-0.324 0.666,-0.9 h 1.782 q -0.18,1.26 -1.242,1.998 -1.062,0.738 -2.628,0.738 z m -2.214,-6.462 v 0.468 h 4.428 v -0.468 q 0,-1.134 -0.576,-1.746 -0.576,-0.612 -1.638,-0.612 -1.062,0 -1.638,0.612 -0.576,0.612 -0.576,1.746 z m 26.88604,6.462 q -1.944,0 -3.096,-1.008 -1.152,-1.026 -1.152,-2.808 h 1.782 q 0,1.044 0.666,1.638 0.666,0.594 1.8,0.594 1.08,0 1.71,-0.594 0.648,-0.612 0.648,-1.62 0,-0.756 -0.414,-1.314 -0.414,-0.576 -1.17,-0.774 l -1.944,-0.522 q -1.278,-0.36 -2.034,-1.296 -0.738,-0.954 -0.738,-2.25 0,-1.062 0.468,-1.854 0.486,-0.81 1.35,-1.242 0.864,-0.45 1.998,-0.45 1.152,0 2.016,0.45 0.882,0.432 1.368,1.224 0.486,0.792 0.486,1.836 h -1.764 q 0,-0.864 -0.594,-1.404 -0.576,-0.54 -1.512,-0.54 -0.936,0 -1.512,0.54 -0.558,0.54 -0.558,1.404 0,0.702 0.378,1.188 0.378,0.468 1.062,0.666 l 1.998,0.54 q 1.35,0.36 2.106,1.386 0.756,1.008 0.756,2.412 0,1.152 -0.504,2.016 -0.504,0.846 -1.44,1.314 -0.918,0.468 -2.16,0.468 z m 12.22799,0 q -1.782,0 -2.88,-1.062 -1.08,-1.062 -1.08,-2.898 v -2.34 q 0,-1.836 1.08,-2.898 1.098,-1.062 2.88,-1.062 1.188,0 2.07,0.486 0.9,0.468 1.386,1.332 0.504,0.846 0.504,1.98 v 1.782 h -6.174 v 0.864 q 0,1.08 0.594,1.692 0.594,0.612 1.62,0.612 0.864,0 1.422,-0.324 0.558,-0.324 0.666,-0.9 h 1.782 q -0.18,1.26 -1.242,1.998 -1.062,0.738 -2.628,0.738 z m -2.214,-6.462 v 0.468 h 4.428 v -0.468 q 0,-1.134 -0.576,-1.746 -0.576,-0.612 -1.638,-0.612 -1.062,0 -1.638,0.612 -0.576,0.612 -0.576,1.746 z m 11.05801,6.282 v -9.9 h 1.764 v 1.908 h 0.018 q 0.144,-0.972 0.828,-1.53 0.702,-0.558 1.854,-0.558 1.53,0 2.376,0.954 0.846,0.936 0.846,2.646 v 0.864 h -1.782 v -0.846 q 0,-2.07 -2.034,-2.07 -1.026,0 -1.566,0.594 -0.522,0.594 -0.522,1.692 v 6.246 z m 14.60402,0 -3.348,-9.9 h 1.89 l 2.106,6.498 q 0.18,0.576 0.324,1.134 0.144,0.54 0.216,0.864 0.072,-0.324 0.198,-0.864 0.126,-0.558 0.306,-1.134 l 2.088,-6.498 h 1.89 l -3.366,9.9 z m 13.45199,0.18 q -1.782,0 -2.88,-1.062 -1.08,-1.062 -1.08,-2.898 v -2.34 q 0,-1.836 1.08,-2.898 1.098,-1.062 2.88,-1.062 1.188,0 2.07,0.486 0.9,0.468 1.386,1.332 0.504,0.846 0.504,1.98 v 1.782 h -6.174 v 0.864 q 0,1.08 0.594,1.692 0.594,0.612 1.62,0.612 0.864,0 1.422,-0.324 0.558,-0.324 0.666,-0.9 h 1.782 q -0.18,1.26 -1.242,1.998 -1.062,0.738 -2.628,0.738 z m -2.214,-6.462 v 0.468 h 4.428 v -0.468 q 0,-1.134 -0.576,-1.746 -0.576,-0.612 -1.638,-0.612 -1.062,0 -1.638,0.612 -0.576,0.612 -0.576,1.746 z m 11.05799,6.282 v -9.9 h 1.764 v 1.908 h 0.018 q 0.144,-0.972 0.828,-1.53 0.702,-0.558 1.854,-0.558 1.53,0 2.376,0.954 0.846,0.936 0.846,2.646 v 0.864 h -1.782 v -0.846 q 0,-2.07 -2.034,-2.07 -1.026,0 -1.566,0.594 -0.522,0.594 -0.522,1.692 v 6.246 z"
     id="text7"
     style="font-weight:500;font-size:18px;font-family:'JetBrains Mono', monospace;letter-spacing:1.5;text-anchor:middle;fill:#ff6a00"
     aria-label="Per-Model Cost · AI Intent · Language Server" />
  <path
     d="m 429.23588,612 3.024,-11.68 h 2.096 l 3.008,11.68 h -1.616 l -0.736,-3.04 h -3.424 l -0.736,3.04 z m 2.672,-4.352 h 2.784 l -0.832,-3.488 q -0.24,-0.96 -0.384,-1.632 -0.144,-0.672 -0.176,-0.912 -0.032,0.24 -0.176,0.912 -0.144,0.672 -0.368,1.616 z m 8.6,7.232 V 603.2 h 1.568 v 1.696 h 0.016 q 0.128,-0.864 0.768,-1.36 0.64,-0.496 1.632,-0.496 1.312,0 2.096,0.896 0.784,0.88 0.784,2.4 v 2.512 q 0,1.536 -0.784,2.432 -0.784,0.88 -2.096,0.88 -0.976,0 -1.616,-0.496 -0.64,-0.496 -0.784,-1.36 h -0.032 l 0.032,2.032 v 2.544 z m 3.424,-4.096 q 0.88,0 1.36,-0.448 0.496,-0.464 0.496,-1.488 v -2.496 q 0,-1.024 -0.496,-1.472 -0.48,-0.464 -1.36,-0.464 -0.848,0 -1.344,0.528 -0.496,0.528 -0.496,1.488 v 2.336 q 0,0.96 0.496,1.488 0.496,0.528 1.344,0.528 z m 9.75201,1.376 q -1.36,0 -2.16,-0.752 -0.784,-0.768 -0.784,-2 0,-1.232 0.816,-1.984 0.832,-0.752 2.176,-0.752 h 2.576 V 606 q 0,-1.616 -1.792,-1.616 -0.8,0 -1.296,0.304 -0.48,0.288 -0.512,0.816 h -1.568 q 0.08,-1.072 0.976,-1.76 0.896,-0.704 2.4,-0.704 1.616,0 2.496,0.768 0.88,0.768 0.88,2.16 V 612 h -1.552 v -1.616 h -0.032 q -0.112,0.816 -0.816,1.296 -0.688,0.48 -1.808,0.48 z m 0.416,-1.328 q 1.008,0 1.6,-0.48 0.608,-0.496 0.608,-1.344 v -1.168 h -2.432 q -0.688,0 -1.12,0.416 -0.416,0.4 -0.416,1.072 0,0.688 0.464,1.104 0.464,0.4 1.296,0.4 z m 11.12801,1.328 q -1.616,0 -2.592,-0.896 -0.976,-0.912 -0.976,-2.496 v -2.352 q 0,-1.568 0.976,-2.464 0.976,-0.912 2.592,-0.912 1.552,0 2.496,0.832 0.96,0.816 1.008,2.24 h -1.568 q -0.048,-0.8 -0.576,-1.232 -0.512,-0.448 -1.36,-0.448 -0.912,0 -1.456,0.528 -0.528,0.512 -0.528,1.456 v 2.352 q 0,0.96 0.528,1.472 0.544,0.512 1.456,0.512 0.864,0 1.376,-0.432 0.512,-0.432 0.56,-1.232 h 1.568 q -0.048,1.424 -1.008,2.256 -0.944,0.816 -2.496,0.816 z m 7.08,-0.16 v -11.68 h 1.584 v 2.88 l -0.016,1.68 h 0.016 q 0.112,-0.864 0.72,-1.344 0.624,-0.496 1.632,-0.496 1.312,0 2.096,0.832 0.784,0.832 0.784,2.24 V 612 h -1.584 v -5.648 q 0,-0.944 -0.48,-1.456 -0.48,-0.512 -1.312,-0.512 -0.864,0 -1.36,0.544 -0.496,0.528 -0.496,1.488 V 612 Z m 13.99201,0.16 q -1.584,0 -2.56,-0.944 -0.96,-0.944 -0.96,-2.576 v -2.08 q 0,-1.632 0.96,-2.576 0.976,-0.944 2.56,-0.944 1.056,0 1.84,0.432 0.8,0.416 1.232,1.184 0.448,0.752 0.448,1.76 V 608 h -5.488 v 0.768 q 0,0.96 0.528,1.504 0.528,0.544 1.44,0.544 0.768,0 1.264,-0.288 0.496,-0.288 0.592,-0.8 h 1.584 q -0.16,1.12 -1.104,1.776 -0.944,0.656 -2.336,0.656 z m -1.968,-5.744 v 0.416 h 3.936 v -0.416 q 0,-1.008 -0.512,-1.552 -0.512,-0.544 -1.456,-0.544 -0.944,0 -1.456,0.544 -0.512,0.544 -0.512,1.552 z M 504.02792,612 v -1.456 l 3.968,-4.192 q 0.768,-0.8 1.088,-1.456 0.336,-0.672 0.336,-1.312 0,-0.912 -0.528,-1.456 -0.528,-0.56 -1.424,-0.56 -0.928,0 -1.472,0.56 -0.544,0.56 -0.544,1.52 h -1.584 q 0.032,-1.6 1.008,-2.544 0.992,-0.944 2.592,-0.944 1.632,0 2.592,0.928 0.976,0.928 0.976,2.48 0,0.848 -0.448,1.776 -0.448,0.912 -1.52,2.016 l -3.104,3.2 h 5.216 V 612 Z m 14.07201,0.16 q -0.608,0 -0.992,-0.368 -0.368,-0.368 -0.368,-0.944 0,-0.608 0.368,-0.992 0.384,-0.384 0.992,-0.384 0.608,0 0.976,0.384 0.384,0.384 0.384,0.992 0,0.576 -0.384,0.944 -0.368,0.368 -0.976,0.368 z m 10.6,0 q -1.648,0 -2.608,-0.928 -0.96,-0.944 -0.96,-2.528 v -5.088 q 0,-1.584 0.96,-2.512 0.96,-0.944 2.608,-0.944 1.648,0 2.608,0.944 0.96,0.928 0.96,2.512 v 5.088 q 0,1.04 -0.448,1.824 -0.432,0.768 -1.232,1.2 -0.8,0.432 -1.888,0.432 z m 0,-1.36 q 0.928,0 1.488,-0.576 0.56,-0.592 0.56,-1.52 v -5.088 q 0,-0.928 -0.56,-1.504 -0.56,-0.592 -1.488,-0.592 -0.928,0 -1.488,0.592 -0.56,0.576 -0.56,1.504 v 5.088 q 0,0.928 0.56,1.52 0.56,0.576 1.488,0.576 z m 0,-3.744 q -0.448,0 -0.72,-0.24 -0.256,-0.256 -0.256,-0.704 0,-0.448 0.256,-0.672 0.272,-0.24 0.72,-0.24 0.448,0 0.72,0.24 0.272,0.224 0.272,0.672 0,0.448 -0.272,0.704 -0.272,0.24 -0.72,0.24 z m 20.41602,6.704 v -15.04 h 1.584 v 15.04 z m 19.72801,1.12 v -1.408 h 2.48 q 0.72,0 1.152,-0.416 0.432,-0.4 0.432,-1.104 v -0.736 l 0.032,-1.52 h -0.016 q -0.16,0.816 -0.784,1.264 -0.608,0.448 -1.568,0.448 -1.36,0 -2.144,-0.864 -0.784,-0.88 -0.784,-2.4 v -1.808 q 0,-1.52 0.784,-2.4 0.784,-0.896 2.144,-0.896 0.928,0 1.536,0.448 0.624,0.448 0.8,1.232 h 0.016 v -1.52 h 1.552 v 8.768 q 0,1.344 -0.848,2.128 -0.848,0.784 -2.304,0.784 z m 2.224,-4.8 q 0.848,0 1.344,-0.528 0.496,-0.528 0.496,-1.488 v -1.648 q 0,-0.944 -0.496,-1.472 -0.496,-0.528 -1.344,-0.528 -0.88,0 -1.36,0.512 -0.48,0.496 -0.48,1.36 v 1.92 q 0,0.864 0.48,1.376 0.48,0.496 1.36,0.496 z m 7.16,1.92 v -1.44 h 3.088 v -5.92 h -2.768 v -1.44 h 4.352 v 7.36 h 2.896 V 612 Z m 3.728,-10.352 q -0.544,0 -0.864,-0.272 -0.32,-0.288 -0.32,-0.768 0,-0.496 0.32,-0.784 0.32,-0.288 0.864,-0.288 0.544,0 0.864,0.288 0.32,0.288 0.32,0.784 0,0.48 -0.32,0.768 -0.32,0.272 -0.864,0.272 z M 593.17997,612 q -1.136,0 -1.808,-0.656 -0.656,-0.656 -0.656,-1.744 v -4.96 h -2.512 v -1.44 h 2.512 v -2.48 h 1.584 v 2.48 h 3.568 v 1.44 h -3.568 v 4.944 q 0,0.432 0.24,0.704 0.256,0.272 0.672,0.272 h 2.576 V 612 Z m 6.32801,0 v -11.68 h 1.584 v 2.88 l -0.016,1.68 h 0.016 q 0.112,-0.864 0.72,-1.344 0.624,-0.496 1.632,-0.496 1.312,0 2.096,0.832 0.784,0.832 0.784,2.24 V 612 h -1.584 v -5.648 q 0,-0.944 -0.48,-1.456 -0.48,-0.512 -1.312,-0.512 -0.864,0 -1.36,0.544 -0.496,0.528 -0.496,1.488 V 612 Z m 13.976,0.16 q -1.552,0 -2.48,-0.912 -0.928,-0.912 -0.928,-2.48 V 603.2 h 1.584 v 5.568 q 0,0.928 0.48,1.472 0.496,0.528 1.344,0.528 0.864,0 1.36,-0.528 0.496,-0.544 0.496,-1.472 V 603.2 h 1.584 v 5.568 q 0,1.568 -0.944,2.48 -0.928,0.912 -2.496,0.912 z m 11.20801,0 q -0.992,0 -1.632,-0.496 -0.64,-0.496 -0.784,-1.376 v 0 1.712 h -1.568 v -11.68 h 1.584 v 2.528 l -0.032,2.048 v 0 q 0.144,-0.864 0.784,-1.36 0.656,-0.496 1.648,-0.496 1.312,0 2.096,0.896 0.784,0.88 0.784,2.4 v 2.528 q 0,1.52 -0.784,2.416 -0.784,0.88 -2.096,0.88 z m -0.56,-1.376 q 0.88,0 1.36,-0.448 0.496,-0.464 0.496,-1.488 v -2.496 q 0,-1.024 -0.496,-1.472 -0.48,-0.464 -1.36,-0.464 -0.848,0 -1.344,0.528 -0.496,0.528 -0.496,1.488 v 2.336 q 0,0.96 0.496,1.488 0.496,0.528 1.344,0.528 z m 10.568,1.376 q -0.608,0 -0.992,-0.368 -0.368,-0.368 -0.368,-0.944 0,-0.608 0.368,-0.992 0.384,-0.384 0.992,-0.384 0.608,0 0.976,0.384 0.384,0.384 0.384,0.992 0,0.576 -0.384,0.944 -0.368,0.368 -0.976,0.368 z m 10.72801,0 q -1.616,0 -2.592,-0.896 -0.976,-0.912 -0.976,-2.496 v -2.352 q 0,-1.568 0.976,-2.464 0.976,-0.912 2.592,-0.912 1.552,0 2.496,0.832 0.96,0.816 1.008,2.24 h -1.568 q -0.048,-0.8 -0.576,-1.232 -0.512,-0.448 -1.36,-0.448 -0.912,0 -1.456,0.528 -0.528,0.512 -0.528,1.456 v 2.352 q 0,0.96 0.528,1.472 0.544,0.512 1.456,0.512 0.864,0 1.376,-0.432 0.512,-0.432 0.56,-1.232 h 1.568 q -0.048,1.424 -1.008,2.256 -0.944,0.816 -2.496,0.816 z m 10.47201,-0.032 q -1.616,0 -2.576,-0.928 -0.944,-0.928 -0.944,-2.592 v -2.016 q 0,-1.664 0.944,-2.592 0.96,-0.928 2.576,-0.928 1.616,0 2.56,0.928 0.96,0.928 0.96,2.592 v 2.016 q 0,1.664 -0.96,2.592 -0.944,0.928 -2.56,0.928 z m 0,-1.392 q 0.896,0 1.408,-0.496 0.528,-0.512 0.528,-1.488 v -2.304 q 0,-0.976 -0.528,-1.472 -0.512,-0.512 -1.408,-0.512 -0.896,0 -1.424,0.512 -0.512,0.496 -0.512,1.472 v 2.304 q 0,0.976 0.512,1.488 0.528,0.496 1.424,0.496 z m 6.712,1.264 v -8.8 h 1.344 v 1.2 h 0.048 q 0.064,-0.608 0.448,-0.976 0.4,-0.384 1.008,-0.384 0.592,0 0.992,0.352 0.4,0.352 0.576,0.944 v 0 q 0.096,-0.608 0.496,-0.944 0.4,-0.352 1.008,-0.352 0.832,0 1.344,0.64 0.512,0.624 0.512,1.632 V 612 h -1.44 v -6.672 q 0,-0.496 -0.256,-0.784 -0.24,-0.304 -0.656,-0.304 -0.416,0 -0.656,0.288 -0.24,0.288 -0.24,0.8 V 612 h -1.28 v -6.672 q 0,-0.496 -0.24,-0.784 -0.24,-0.304 -0.656,-0.304 -0.416,0 -0.672,0.288 -0.24,0.288 -0.24,0.8 V 612 Z m 10.82401,1.76 5.664,-15.04 h 1.664 l -5.664,15.04 z m 11.192,-1.76 v -8.8 h 1.568 v 1.696 h 0.016 q 0.128,-0.864 0.736,-1.36 0.624,-0.496 1.648,-0.496 1.36,0 2.112,0.848 0.752,0.832 0.752,2.352 v 0.768 h -1.584 v -0.752 q 0,-1.84 -1.808,-1.84 -0.912,0 -1.392,0.528 -0.464,0.528 -0.464,1.504 V 612 Z m 13.67201,0.128 q -1.616,0 -2.576,-0.928 -0.944,-0.928 -0.944,-2.592 v -2.016 q 0,-1.664 0.944,-2.592 0.96,-0.928 2.576,-0.928 1.616,0 2.56,0.928 0.96,0.928 0.96,2.592 v 2.016 q 0,1.664 -0.96,2.592 -0.944,0.928 -2.56,0.928 z m 0,-1.392 q 0.896,0 1.408,-0.496 0.528,-0.512 0.528,-1.488 v -2.304 q 0,-0.976 -0.528,-1.472 -0.512,-0.512 -1.408,-0.512 -0.896,0 -1.424,0.512 -0.512,0.496 -0.512,1.472 v 2.304 q 0,0.976 0.512,1.488 0.528,0.496 1.424,0.496 z m 10.72801,1.424 q -1.616,0 -2.592,-0.896 -0.976,-0.912 -0.976,-2.496 v -2.352 q 0,-1.568 0.976,-2.464 0.976,-0.912 2.592,-0.912 1.552,0 2.496,0.832 0.96,0.816 1.008,2.24 h -1.568 q -0.048,-0.8 -0.576,-1.232 -0.512,-0.448 -1.36,-0.448 -0.912,0 -1.456,0.528 -0.528,0.512 -0.528,1.456 v 2.352 q 0,0.96 0.528,1.472 0.544,0.512 1.456,0.512 0.864,0 1.376,-0.432 0.512,-0.432 0.56,-1.232 h 1.568 q -0.048,1.424 -1.008,2.256 -0.944,0.816 -2.496,0.816 z m 7.16,-0.16 v -11.68 h 1.584 v 6.464 h 1.616 l 2.368,-3.584 h 1.792 l -2.768,4.208 2.912,4.592 h -1.824 l -2.464,-3.856 h -1.632 V 612 Z m 11.91201,2.88 1.28,-3.408 -3.28,-8.272 h 1.68 l 1.984,5.2 q 0.128,0.336 0.256,0.72 0.128,0.384 0.176,0.672 0.048,-0.288 0.16,-0.672 0.112,-0.384 0.24,-0.72 l 1.84,-5.2 h 1.68 l -4.368,11.68 z m 10.04,-7.456 V 606 h 5.12 v 1.424 z m 12.58401,4.736 q -1.328,0 -2.112,-0.88 -0.784,-0.896 -0.784,-2.416 v -2.528 q 0,-1.52 0.784,-2.4 0.784,-0.896 2.112,-0.896 0.976,0 1.616,0.496 0.656,0.496 0.8,1.36 v 0 l -0.032,-2.048 v -2.528 h 1.584 V 612 h -1.568 v -1.712 0 q -0.144,0.88 -0.784,1.376 -0.64,0.496 -1.616,0.496 z m 0.544,-1.376 q 0.848,0 1.344,-0.528 0.496,-0.528 0.496,-1.488 v -2.336 q 0,-0.96 -0.496,-1.488 -0.496,-0.528 -1.344,-0.528 -0.88,0 -1.376,0.464 -0.48,0.448 -0.48,1.472 v 2.496 q 0,1.024 0.48,1.488 0.496,0.448 1.376,0.448 z m 9.81601,1.376 q -1.36,0 -2.16,-0.752 -0.784,-0.768 -0.784,-2 0,-1.232 0.816,-1.984 0.832,-0.752 2.176,-0.752 h 2.576 V 606 q 0,-1.616 -1.792,-1.616 -0.8,0 -1.296,0.304 -0.48,0.288 -0.512,0.816 h -1.568 q 0.08,-1.072 0.976,-1.76 0.896,-0.704 2.4,-0.704 1.616,0 2.496,0.768 0.88,0.768 0.88,2.16 V 612 h -1.552 v -1.616 h -0.032 q -0.112,0.816 -0.816,1.296 -0.688,0.48 -1.808,0.48 z m 0.416,-1.328 q 1.008,0 1.6,-0.48 0.608,-0.496 0.608,-1.344 v -1.168 h -2.432 q -0.688,0 -1.12,0.416 -0.416,0.4 -0.416,1.072 0,0.688 0.464,1.104 0.464,0.4 1.296,0.4 z m 11.88,1.168 q -1.136,0 -1.808,-0.656 -0.656,-0.656 -0.656,-1.744 v -4.96 h -2.512 v -1.44 h 2.512 v -2.48 h 1.584 v 2.48 h 3.568 v 1.44 h -3.568 v 4.944 q 0,0.432 0.24,0.704 0.256,0.272 0.672,0.272 h 2.576 V 612 Z m 8.90401,0.16 q -1.36,0 -2.16,-0.752 -0.784,-0.768 -0.784,-2 0,-1.232 0.816,-1.984 0.832,-0.752 2.176,-0.752 h 2.576 V 606 q 0,-1.616 -1.792,-1.616 -0.8,0 -1.296,0.304 -0.48,0.288 -0.512,0.816 h -1.568 q 0.08,-1.072 0.976,-1.76 0.896,-0.704 2.4,-0.704 1.616,0 2.496,0.768 0.88,0.768 0.88,2.16 V 612 h -1.552 v -1.616 h -0.032 q -0.112,0.816 -0.816,1.296 -0.688,0.48 -1.808,0.48 z m 0.416,-1.328 q 1.008,0 1.6,-0.48 0.608,-0.496 0.608,-1.344 v -1.168 h -2.432 q -0.688,0 -1.12,0.416 -0.416,0.4 -0.416,1.072 0,0.688 0.464,1.104 0.464,0.4 1.296,0.4 z m 7.33601,2.928 5.664,-15.04 h 1.664 l -5.664,15.04 z m 11.192,-1.76 v -8.8 h 1.568 v 1.696 h 0.016 q 0.128,-0.864 0.736,-1.36 0.624,-0.496 1.648,-0.496 1.36,0 2.112,0.848 0.752,0.832 0.752,2.352 v 0.768 h -1.584 v -0.752 q 0,-1.84 -1.808,-1.84 -0.912,0 -1.392,0.528 -0.464,0.528 -0.464,1.504 V 612 Z m 13.67201,0.128 q -1.616,0 -2.576,-0.928 -0.944,-0.928 -0.944,-2.592 v -2.016 q 0,-1.664 0.944,-2.592 0.96,-0.928 2.576,-0.928 1.616,0 2.56,0.928 0.96,0.928 0.96,2.592 v 2.016 q 0,1.664 -0.96,2.592 -0.944,0.928 -2.56,0.928 z m 0,-1.392 q 0.896,0 1.408,-0.496 0.528,-0.512 0.528,-1.488 v -2.304 q 0,-0.976 -0.528,-1.472 -0.512,-0.512 -1.408,-0.512 -0.896,0 -1.424,0.512 -0.512,0.496 -0.512,1.472 v 2.304 q 0,0.976 0.512,1.488 0.528,0.496 1.424,0.496 z m 10.728,1.424 q -1.616,0 -2.592,-0.896 -0.976,-0.912 -0.976,-2.496 v -2.352 q 0,-1.568 0.976,-2.464 0.976,-0.912 2.592,-0.912 1.552,0 2.496,0.832 0.96,0.816 1.008,2.24 h -1.568 q -0.048,-0.8 -0.576,-1.232 -0.512,-0.448 -1.36,-0.448 -0.912,0 -1.456,0.528 -0.528,0.512 -0.528,1.456 v 2.352 q 0,0.96 0.528,1.472 0.544,0.512 1.456,0.512 0.864,0 1.376,-0.432 0.512,-0.432 0.56,-1.232 h 1.568 q -0.048,1.424 -1.008,2.256 -0.944,0.816 -2.496,0.816 z m 7.16001,-0.16 v -11.68 h 1.584 v 6.464 h 1.616 l 2.368,-3.584 h 1.792 l -2.768,4.208 2.912,4.592 h -1.824 l -2.464,-3.856 h -1.632 V 612 Z m 11.91201,2.88 1.28,-3.408 -3.28,-8.272 h 1.68 l 1.984,5.2 q 0.128,0.336 0.256,0.72 0.128,0.384 0.176,0.672 0.048,-0.288 0.16,-0.672 0.112,-0.384 0.24,-0.72 l 1.84,-5.2 h 1.68 l -4.368,11.68 z"
     id="text8"
     style="font-weight:500;font-size:16px;font-family:'JetBrains Mono', monospace;letter-spacing:1;text-anchor:middle;fill:#8a969c"
     aria-label="Apache 2.0 | github.com/rocky-data/rocky" />
  <rect
     x="0"
     y="634"
     width="1280"
     height="6"
     fill="#FF6A00"
     data-om-id="jsx:/https:/019df4d5-a06c-7ad2-bdf8-ef90952b5db1.claudeusercontent.com/v1/design/projects/019df4d5-a06c-7ad2-bdf8-ef90952b5db1/serve/banners.jsx:7884:212:7"
     data-cc-id="cc-32"
     id="rect8" />
</svg>
