<svg xmlns="http://www.w3.org/2000/svg" viewBox="0 0 1024 1024" width="512" height="512">
<rect width="1024" height="1024" fill="#111C20"/>
<path fill="#FF6A00" 
	d="
M295.4,486 
	C295.4,412.9 295.4,340.4 295.4,266.3 
	C298.8,269.3 301,271.1 303.1,273.1 
	C331.6,300.7 360,328.3 388.3,356 
	C390,357.7 391.2,360.6 391.2,362.9 
	C391.4,393 391.4,423.2 391.2,453.3 
	C391.2,455.4 390.2,458 388.8,459.4 
	C358.8,489.7 328.7,519.9 298.6,550 
	C298,550.6 297.3,551.1 295.4,552.5 
	C295.4,529.8 295.4,508.1 295.4,486 
z"/>
<path fill="#FF6A00" 
	d="
M589,592.5 
	C619.1,631.4 649,670 678.9,708.5 
	C681.4,711.8 681.9,713.6 678,716.3 
	C653.6,733.8 629.4,751.5 605.3,769.2 
	C602,771.7 600.6,770.7 598.6,767.8 
	C575.1,733.1 551.6,698.4 528,663.7 
	C512.9,641.3 497.8,619 482.8,596.6 
	C481.8,595.1 480.9,593.5 479.6,591.4 
	C481.5,591.2 482.9,590.9 484.3,590.9 
	C517.1,590.8 549.9,590.8 582.7,590.8 
	C584.7,590.8 586.7,591.7 589,592.5 
z"/>
<path fill="#FF6A00" 
	d="
M407.7,273.3 
	C407.7,268.4 407.9,263.9 407.6,259.4 
	C407.3,255.2 408.9,254 413,254 
	C438.7,254.2 464.3,254.2 490,254.2 
	C529.6,254.2 569.3,254.1 608.9,254.1 
	C610.6,254.1 612.2,254.1 615.1,254.1 
	C613,256.8 611.7,258.8 610.2,260.5 
	C585.1,287.9 559.7,315.1 535,342.8 
	C529.7,348.7 524.4,350.8 516.7,350.7 
	C482.9,350.4 449.1,350.6 415.3,350.7 
	C413,350.7 410.7,350.7 407.7,350.7 
	C407.7,324.6 407.7,299.2 407.7,273.3 
z"/>
<path fill="#FF6A00" 
	d="
M512.9,522.9 
	C498.4,538.5 484.1,553.9 470,569.4 
	C467.1,572.5 464.2,574.1 459.7,574.1 
	C443.9,573.8 428,573.9 412.2,574.1 
	C408.7,574.1 407.6,573 407.6,569.5 
	C407.7,540.5 407.8,511.6 407.7,482.6 
	C407.7,479.3 408.6,477.8 412.2,477.8 
	C458,478 503.8,478 549.6,478.1 
	C550.5,478.1 551.5,478.3 553.8,478.5 
	C539.8,493.7 526.5,508.2 512.9,522.9 
z"/>
<path fill="#FF6A00" 
	d="
M597.4,563 
	C597.3,562.5 597.2,562 597.4,560.9 
	C597.6,557.8 598,555.5 597.7,553.2 
	C596.4,541.8 595,530.5 593.4,519.1 
	C591.1,501.6 588.6,484.2 586.2,466.7 
	C585.8,463.5 586.3,461.2 589.5,459.3 
	C599,453.5 605.9,444.7 612.5,436.1 
	C617.2,430 620.3,422.6 623.4,415.5 
	C625.4,410.9 625.7,410.3 629.8,413.1 
	C635.5,417.1 641.1,421.2 646.7,425.3 
	C664.7,438.4 682.6,451.6 700.6,464.7 
	C702.5,466.1 705.1,466.7 707.3,467.7 
	C707.3,467.7 707.2,467.7 707.3,468 
	C710.5,471.8 710,474.4 706.3,477.4 
	C695.9,485.8 685.8,494.7 675.5,503.2 
	C668.1,509.4 660.5,515.2 653.1,521.4 
	C644.9,528.4 636.7,535.4 628.7,542.7 
	C624.3,546.6 620.4,551.1 616.2,555.3 
	C616.2,555.3 616,555 615.8,555.2 
	C610.5,559.1 605.5,562.8 600.4,566.7 
	C599.2,565.2 598.3,564.1 597.4,563 
z"/>
<path fill="#FF6A00" 
	d="
M647.3,270.7 
	C669.5,297 691.5,323 714.2,349.9 
	C711.8,350.1 710.4,350.4 709,350.4 
	C672.9,350.5 636.7,350.6 600.6,350.5 
	C598.7,350.5 596.2,349 595.2,347.4 
	C590,339.7 585,331.8 580.3,323.7 
	C579.5,322.3 579.3,319.3 580.3,318.2 
	C598.2,298.3 616.3,278.5 634.5,258.8 
	C634.8,258.4 635.3,258.2 636.2,257.6 
	C639.8,261.9 643.4,266.1 647.3,270.7 
z"/>
<path fill="#FF6A00" 
	d="
M349,771.7 
	C334.8,771.7 321,771.7 307.3,771.7 
	C307.1,771.2 307,770.6 306.8,770.1 
	C334.5,741.4 362.2,712.8 390.9,683.3 
	C391.1,686.1 391.3,687.7 391.3,689.2 
	C391.4,714.9 391.2,740.5 391.5,766.2 
	C391.5,771 389.8,772 385.5,771.9 
	C373.5,771.6 361.5,771.7 349,771.7 
z"/>
<path fill="#FF6A00" 
	d="
M654,367.4 
	C673.2,367.4 691.9,367.4 710.7,367.4 
	C710.8,367.9 711,368.4 711.1,368.9 
	C707,373.6 703,378.4 698.8,383.1 
	C689.3,393.9 679.8,404.5 670.4,415.4 
	C668.3,417.8 666.8,417.9 664.2,416 
	C649.8,405.3 634.9,395.1 620.9,383.9 
	C616.2,380.2 613.6,373.8 609.1,367.4 
	C624.7,367.4 639.1,367.4 654,367.4 
z"/>
<path fill="#FF6A00" 
	d="
M722.4,771.9 
	C691.8,771.9 661.7,771.9 631.6,771.9 
	C631.5,771.5 631.4,771.1 631.3,770.7 
	C651.5,756.2 671.8,741.7 692.4,726.9 
	C704,741.7 715.3,756.1 727.1,771 
	C725.2,771.4 724,771.6 722.4,771.9 
z"/>
<path fill="#FF6A00" 
	d="
M686.3,422.3 
	C699.9,406.9 713.3,391.7 727.6,375.5 
	C735.3,404.4 732.6,431.2 723.3,458.8 
	C709,448.2 695.5,438.2 681.6,427.9 
	C683.3,425.8 684.7,424.2 686.3,422.3 
z"/>
<path fill="#FF6A00" 
	d="
M542.2,527.7 
	C540.3,525.9 538.7,524.3 536.5,522.3 
	C547.7,510.1 558.7,498.2 569.7,486.3 
	C570.3,486.4 570.8,486.5 571.4,486.6 
	C574.6,512.2 577.8,537.8 581.1,563.3 
	C580.8,563.5 580.4,563.7 580.1,563.9 
	C567.6,552 555,540 542.2,527.7 
z"/>
<path fill="#FF6A00" 
	d="
M391.1,555.3 
	C390.9,556.6 390.7,557.5 390.3,559.3 
	C384.5,553.9 379.4,549.1 374.2,544.3 
	C367.5,538 360.8,531.8 354.1,525.5 
	C352.1,523.7 350.6,522.1 353.2,519.4 
	C365.2,507.4 377,495.2 389,483.2 
	C389.3,482.9 389.8,482.8 391.1,482.4 
	C391.1,506.8 391.1,530.9 391.1,555.3 
z"/>
<path fill="#FF6A00" 
	d="
M355.9,284.9 
	C353.2,287.6 350.7,290.1 347.5,293.2 
	C334.6,280.6 321.7,268 307.9,254.6 
	C334,254.6 358.8,254.6 385,254.6 
	C375,265 365.6,274.8 355.9,284.9 
z"/>
<path fill="#FF6A00" 
	d="
M549,573.9 
	C529.2,573.9 510,573.9 490.7,573.9 
	C490.4,573.5 490.2,573.1 489.9,572.7 
	C501.5,560.1 513,547.5 525.1,534.5 
	C538.5,547.3 551.5,559.9 564.6,572.4 
	C564.5,572.9 564.3,573.4 564.1,573.9 
	C559.2,573.9 554.4,573.9 549,573.9 
z"/>
<path fill="#FF6A00" 
	d="
M295.3,601 
	C295.3,594 295.1,587.5 295.4,581 
	C295.5,578.9 296.5,576.4 297.9,575 
	C310.6,561.9 323.4,549.1 336.1,536.1 
	C338.3,533.9 339.7,534 341.8,536 
	C357.7,551 373.6,565.9 389.3,581 
	C390.6,582.3 391.4,584.8 391.5,586.8 
	C391.6,609.9 391.6,633 391.5,656.2 
	C391.5,658.1 390.7,660.6 389.3,661.9 
	C359,693 328.5,724 298,754.9 
	C297.6,755.4 297,755.7 295.3,756.7 
	C295.3,704.4 295.3,653 295.3,601 
M390.1,610.5 
	C390.1,604.5 389.5,598.4 390.2,592.5 
	C391,585.6 387.6,581.3 383.1,577.1 
	C369.6,564.5 356,552.1 342.7,539.3 
	C339.6,536.3 337.9,536.4 335.1,539.3 
	C323.8,550.9 312.4,562.3 300.9,573.6 
	C298,576.5 296.9,579.7 296.9,583.8 
	C297,638 296.9,692.1 296.9,746.2 
	C296.9,747.8 297.2,749.3 297.3,750.9 
	C297.8,751.2 298.3,751.4 298.8,751.7 
	C304.8,745.4 310.7,739 316.8,732.8 
	C327.8,721.6 339,710.4 350.1,699.3 
	C361.4,688 372.6,676.7 384.1,665.5 
	C388.3,661.4 390.3,657 390.2,651 
	C389.8,637.8 390.1,624.7 390.1,610.5 
z"/>
<path fill="#FF6A00" 
	d="
M368,296 
	C375.9,288.7 383.5,281.7 390.8,275 
	C390.8,293.9 390.8,313.8 390.8,333.8 
	C390.5,334 390.1,334.2 389.8,334.5 
	C380.6,324.1 371.3,313.8 362.1,303.4 
	C361.3,303.8 360.4,304.2 359.6,304.6 
	C362.3,301.9 365.1,299.1 368,296 
z"/>
<path fill="#FF6A00" 
	d="
M707.2,467.4 
	C705.1,466.7 702.5,466.1 700.6,464.7 
	C682.6,451.6 664.7,438.4 646.7,425.3 
	C641.1,421.2 635.5,417.1 629.8,413.1 
	C625.7,410.3 625.4,410.9 623.4,415.5 
	C620.3,422.6 617.2,430 612.5,436.1 
	C605.9,444.7 599,453.5 589.5,459.3 
	C586.3,461.2 585.8,463.5 586.2,466.7 
	C588.6,484.2 591.1,501.6 593.4,519.1 
	C595,530.5 596.4,541.8 597.7,553.2 
	C598,555.5 597.6,557.8 597.4,560.5 
	C593,528.6 588.9,496.4 584.6,464.2 
	C584.1,460.9 585.7,459.5 588,457.8 
	C601.4,447.9 612.8,436.1 619.7,420.6 
	C621.5,416.6 622.5,412.1 624.2,406.9 
	C652,427.1 679.5,447.1 707.2,467.4 
z"/>
<path fill="#FF6A00" 
	d="
M616.6,555.2 
	C620.4,551.1 624.3,546.6 628.7,542.7 
	C636.7,535.4 644.9,528.4 653.1,521.4 
	C660.5,515.2 668.1,509.4 675.5,503.2 
	C685.8,494.7 695.9,485.8 706.3,477.4 
	C710,474.4 710.5,471.8 707.3,468 
	C709.2,469 711.2,470.4 714.2,472.5 
	C681.4,500.4 649.1,527.7 616.6,555.2 
z"/>
<path fill="#FF6A00" 
	d="
M565.9,350.5 
	C561.1,350.5 556.7,350.5 552.3,350.5 
	C552.1,350 552,349.5 551.8,349 
	C556.5,343.8 561.1,338.6 566.5,332.6 
	C570.1,338.8 573.2,344.1 576.9,350.5 
	C572.5,350.5 569.5,350.5 565.9,350.5 
z"/>
<path fill="#FF6A00" 
	d="
M597.3,563.4 
	C598.3,564.1 599.2,565.2 600.4,566.7 
	C605.5,562.8 610.5,559.1 615.9,555.3 
	C610.6,560.3 604.9,565.3 598.4,571.1 
	C597.9,567.6 597.6,565.7 597.3,563.4 
z"/>
<path fill="#FF6A00" 
	d="
M390.1,611 
	C390.1,624.7 389.8,637.8 390.2,651 
	C390.3,657 388.3,661.4 384.1,665.5 
	C372.6,676.7 361.4,688 350.1,699.3 
	C339,710.4 327.8,721.6 316.8,732.8 
	C310.7,739 304.8,745.4 298.8,751.7 
	C298.3,751.4 297.8,751.2 297.3,750.9 
	C297.2,749.3 296.9,747.8 296.9,746.2 
	C296.9,692.1 297,638 296.9,583.8 
	C296.9,579.7 298,576.5 300.9,573.6 
	C312.4,562.3 323.8,550.9 335.1,539.3 
	C337.9,536.4 339.6,536.3 342.7,539.3 
	C356,552.1 369.6,564.5 383.1,577.1 
	C387.6,581.3 391,585.6 390.2,592.5 
	C389.5,598.4 390.1,604.5 390.1,611 
z"/>
</svg>